<?xml version="1.0" encoding="UTF-8"?>
<svg id="Layer_2" data-name="Layer 2" xmlns="http://www.w3.org/2000/svg" viewBox="0 0 38.8 38.8">
  <defs>
    <style>
      .cls-1 {
        fill: #f3f4f6;
      }
    </style>
  </defs>
  <g id="Layer_1-2" data-name="Layer 1">
    <path class="cls-1" d="M23.39,19.4l14.58-14.58c1.1-1.1,1.1-2.89,0-3.99-1.06-1.06-2.93-1.06-3.99,0l-14.58,14.58L4.82,.83C3.72-.28,1.93-.28,.83,.83c-.53,.53-.83,1.24-.83,2s.29,1.46,.83,2l14.58,14.58L.83,33.98C.3,34.51,0,35.22,0,35.97s.29,1.46,.83,2c.53,.53,1.24,.83,2,.83s1.46-.29,2-.83l14.58-14.58,14.58,14.58c.53,.53,1.24,.83,2,.83s1.46-.29,2-.83,.83-1.24,.83-2-.29-1.46-.83-2l-14.58-14.58Z"/>
  </g>
</svg>