<?xml version="1.0" encoding="UTF-8"?>
<svg id="Layer_2" data-name="Layer 2" xmlns="http://www.w3.org/2000/svg" viewBox="0 0 211.86 35.08">
  <defs>
    <style>
      .cls-1 {
        fill: #fff;
      }

      .cls-2 {
        isolation: isolate;
      }
    </style>
  </defs>
  <g id="Layer_2-2" data-name="Layer 2">
    <g id="Layer_1-2" data-name="Layer 1-2">
      <g class="cls-2">
        <path class="cls-1" d="M25.62,23.65H6.65c.16,1.87,.81,3.34,1.97,4.4,1.15,1.06,2.58,1.59,4.26,1.59,2.44,0,4.17-1.05,5.2-3.14h7.07c-.75,2.5-2.19,4.55-4.31,6.16-2.12,1.61-4.73,2.41-7.82,2.41-2.5,0-4.74-.55-6.72-1.66-1.98-1.11-3.53-2.68-4.64-4.71-1.11-2.03-1.66-4.37-1.66-7.02s.55-5.04,1.64-7.07c1.09-2.03,2.62-3.59,4.59-4.68,1.97-1.09,4.23-1.64,6.79-1.64s4.68,.53,6.63,1.59c1.95,1.06,3.47,2.57,4.54,4.52s1.62,4.19,1.62,6.72c0,.94-.06,1.78-.19,2.53Zm-6.6-4.4c-.03-1.69-.64-3.04-1.83-4.05-1.19-1.01-2.64-1.52-4.35-1.52-1.62,0-2.99,.49-4.1,1.47-1.11,.98-1.79,2.35-2.04,4.1h12.32Z"/>
        <path class="cls-1" d="M39.43,28.61l6.56-19.9h6.98l-9.6,25.94h-7.96L25.85,8.71h7.02l6.56,19.9Z"/>
        <path class="cls-1" d="M78.63,23.65h-18.97c.16,1.87,.81,3.34,1.97,4.4,1.15,1.06,2.58,1.59,4.26,1.59,2.44,0,4.17-1.05,5.2-3.14h7.07c-.75,2.5-2.19,4.55-4.31,6.16-2.12,1.61-4.73,2.41-7.82,2.41-2.5,0-4.74-.55-6.72-1.66-1.98-1.11-3.53-2.68-4.64-4.71-1.11-2.03-1.66-4.37-1.66-7.02s.55-5.04,1.64-7.07c1.09-2.03,2.62-3.59,4.59-4.68,1.97-1.09,4.23-1.64,6.79-1.64s4.68,.53,6.63,1.59c1.95,1.06,3.47,2.57,4.54,4.52s1.62,4.19,1.62,6.72c0,.94-.06,1.78-.19,2.53Zm-6.6-4.4c-.03-1.69-.64-3.04-1.83-4.05-1.19-1.01-2.64-1.52-4.35-1.52-1.62,0-2.99,.49-4.1,1.47-1.11,.98-1.79,2.35-2.04,4.1h12.32Z"/>
        <path class="cls-1" d="M91.48,9.51c1.36-.78,2.91-1.17,4.66-1.17v6.88h-1.73c-2.06,0-3.61,.48-4.66,1.45-1.05,.97-1.57,2.65-1.57,5.06v12.92h-6.56V8.71h6.56v4.03c.84-1.37,1.94-2.45,3.3-3.23Z"/>
        <path class="cls-1" d="M98.46,14.61c1.05-2.03,2.47-3.59,4.28-4.68,1.81-1.09,3.82-1.64,6.04-1.64,1.69,0,3.29,.37,4.82,1.1,1.53,.73,2.75,1.71,3.65,2.93V0h6.65V34.65h-6.65v-3.84c-.81,1.28-1.95,2.31-3.42,3.09-1.47,.78-3.17,1.17-5.1,1.17-2.19,0-4.18-.56-5.99-1.69s-3.24-2.71-4.28-4.75c-1.05-2.04-1.57-4.39-1.57-7.05s.52-4.95,1.57-6.98Zm17.91,2.97c-.62-1.14-1.47-2.01-2.53-2.62-1.06-.61-2.2-.91-3.42-.91s-2.34,.3-3.37,.89c-1.03,.59-1.87,1.46-2.51,2.6-.64,1.14-.96,2.49-.96,4.05s.32,2.93,.96,4.1c.64,1.17,1.48,2.07,2.53,2.69,1.04,.62,2.16,.94,3.35,.94s2.36-.3,3.42-.91c1.06-.61,1.9-1.48,2.53-2.62s.94-2.51,.94-4.1-.31-2.96-.94-4.1Z"/>
        <path class="cls-1" d="M128.24,14.61c1.05-2.03,2.47-3.59,4.26-4.68,1.79-1.09,3.8-1.64,6.02-1.64,1.94,0,3.63,.39,5.08,1.17,1.45,.78,2.61,1.76,3.49,2.95v-3.7h6.6v25.94h-6.6v-3.79c-.84,1.22-2.01,2.22-3.49,3.02-1.48,.8-3.19,1.19-5.13,1.19-2.19,0-4.18-.56-5.97-1.69s-3.22-2.71-4.26-4.75-1.57-4.39-1.57-7.05,.52-4.95,1.57-6.98Zm17.91,2.97c-.62-1.14-1.47-2.01-2.53-2.62-1.06-.61-2.2-.91-3.42-.91s-2.34,.3-3.37,.89c-1.03,.59-1.87,1.46-2.51,2.6-.64,1.14-.96,2.49-.96,4.05s.32,2.93,.96,4.1c.64,1.17,1.48,2.07,2.53,2.69,1.04,.62,2.16,.94,3.35,.94s2.36-.3,3.42-.91c1.06-.61,1.9-1.48,2.53-2.62,.62-1.14,.94-2.51,.94-4.1s-.31-2.96-.94-4.1Z"/>
        <path class="cls-1" d="M180.01,11.26c1.9,1.95,2.86,4.68,2.86,8.17v15.22h-6.56v-14.33c0-2.06-.51-3.64-1.55-4.75-1.03-1.11-2.43-1.66-4.21-1.66s-3.24,.55-4.28,1.66-1.57,2.69-1.57,4.75v14.33h-6.56V8.71h6.56v3.23c.87-1.12,1.99-2,3.35-2.65,1.36-.64,2.85-.96,4.47-.96,3.09,0,5.59,.98,7.49,2.93Z"/>
        <path class="cls-1" d="M209,11.26c1.9,1.95,2.86,4.68,2.86,8.17v15.22h-6.56v-14.33c0-2.06-.52-3.64-1.54-4.75-1.03-1.11-2.44-1.66-4.21-1.66s-3.24,.55-4.29,1.66c-1.05,1.11-1.57,2.69-1.57,4.75v14.33h-6.56V8.71h6.56v3.23c.87-1.12,1.99-2,3.35-2.65,1.36-.64,2.85-.96,4.47-.96,3.09,0,5.59,.98,7.49,2.93Z"/>
      </g>
    </g>
  </g>
</svg>