<?xml version="1.0" encoding="utf-8"?>
<!-- Generator: Adobe Illustrator 27.0.0, SVG Export Plug-In . SVG Version: 6.00 Build 0)  -->
<svg version="1.1" id="Layer_2_00000022524249062518078170000017211685207575964552_"
	 xmlns="http://www.w3.org/2000/svg" xmlns:xlink="http://www.w3.org/1999/xlink" x="0px" y="0px" viewBox="0 0 211.9 35.1"
	 style="enable-background:new 0 0 211.9 35.1;" xml:space="preserve">
<g id="Layer_2-2">
	<g id="Layer_1-2">
		<g>
			<path d="M25.6,23.6h-19c0.2,1.9,0.8,3.3,2,4.4c1.1,1.1,2.6,1.6,4.3,1.6c2.4,0,4.2-1,5.2-3.1h7.1C24.4,29,23,31,20.8,32.7
				s-4.7,2.4-7.8,2.4c-2.5,0-4.7-0.5-6.7-1.7s-3.5-2.7-4.6-4.7S0,24.3,0,21.7s0.6-5,1.6-7.1S4.3,11,6.2,9.9s4.2-1.6,6.8-1.6
				s4.7,0.5,6.6,1.6s3.5,2.6,4.5,4.5s1.6,4.2,1.6,6.7C25.8,22.1,25.8,22.9,25.6,23.6z M19,19.2c0-1.7-0.6-3-1.8-4.1
				s-2.6-1.5-4.4-1.5c-1.6,0-3,0.5-4.1,1.5s-1.8,2.3-2,4.1H19z"/>
			<path d="M39.4,28.6L46,8.7h7l-9.6,25.9h-8L25.9,8.7h7L39.4,28.6z"/>
			<path d="M78.6,23.6h-19c0.2,1.9,0.8,3.3,2,4.4c1.2,1.1,2.6,1.6,4.3,1.6c2.4,0,4.2-1,5.2-3.1h7.1C77.4,29,76,31,73.8,32.7
				c-2.1,1.6-4.7,2.4-7.8,2.4c-2.5,0-4.7-0.5-6.7-1.7c-2-1.1-3.5-2.7-4.6-4.7s-1.7-4.4-1.7-7s0.5-5,1.6-7.1s2.6-3.6,4.6-4.7
				s4.2-1.6,6.8-1.6c2.6,0,4.7,0.5,6.6,1.6s3.5,2.6,4.5,4.5s1.6,4.2,1.6,6.7C78.8,22.1,78.8,22.9,78.6,23.6z M72,19.2
				c0-1.7-0.6-3-1.8-4.1s-2.6-1.5-4.3-1.5c-1.6,0-3,0.5-4.1,1.5c-1.1,1-1.8,2.3-2,4.1H72z"/>
			<path d="M91.5,9.5c1.4-0.8,2.9-1.2,4.7-1.2v6.9h-1.7c-2.1,0-3.6,0.5-4.7,1.4c-1.1,1-1.6,2.6-1.6,5.1v12.9h-6.6V8.7h6.6v4
				C89,11.4,90.1,10.3,91.5,9.5z"/>
			<path d="M98.5,14.6c1.1-2,2.5-3.6,4.3-4.7s3.8-1.6,6-1.6c1.7,0,3.3,0.4,4.8,1.1s2.8,1.7,3.7,2.9V0h6.7v34.7h-6.7v-3.8
				c-0.8,1.3-1.9,2.3-3.4,3.1s-3.2,1.2-5.1,1.2c-2.2,0-4.2-0.6-6-1.7s-3.2-2.7-4.3-4.8c-1.1-2-1.6-4.4-1.6-7S97.4,16.6,98.5,14.6
				L98.5,14.6z M116.4,17.6c-0.6-1.1-1.5-2-2.5-2.6s-2.2-0.9-3.4-0.9s-2.3,0.3-3.4,0.9c-1,0.6-1.9,1.5-2.5,2.6s-1,2.5-1,4
				s0.3,2.9,1,4.1s1.5,2.1,2.5,2.7c1,0.6,2.2,0.9,3.3,0.9s2.4-0.3,3.4-0.9s1.9-1.5,2.5-2.6s0.9-2.5,0.9-4.1S117,18.7,116.4,17.6
				L116.4,17.6z"/>
			<path d="M128.2,14.6c1.1-2,2.5-3.6,4.3-4.7s3.8-1.6,6-1.6c1.9,0,3.6,0.4,5.1,1.2s2.6,1.8,3.5,2.9V8.7h6.6v25.9h-6.6v-3.8
				c-0.8,1.2-2,2.2-3.5,3c-1.5,0.8-3.2,1.2-5.1,1.2c-2.2,0-4.2-0.6-6-1.7s-3.2-2.7-4.3-4.8s-1.6-4.4-1.6-7S127.2,16.6,128.2,14.6
				L128.2,14.6z M146.2,17.6c-0.6-1.1-1.5-2-2.5-2.6s-2.2-0.9-3.4-0.9s-2.3,0.3-3.4,0.9s-1.9,1.5-2.5,2.6s-1,2.5-1,4s0.3,2.9,1,4.1
				s1.5,2.1,2.5,2.7c1,0.6,2.2,0.9,3.4,0.9s2.4-0.3,3.4-0.9s1.9-1.5,2.5-2.6c0.6-1.1,0.9-2.5,0.9-4.1S146.8,18.7,146.2,17.6
				L146.2,17.6z"/>
			<path d="M180,11.3c1.9,1.9,2.9,4.7,2.9,8.2v15.2h-6.6V20.3c0-2.1-0.5-3.6-1.6-4.8c-1-1.1-2.4-1.7-4.2-1.7s-3.2,0.6-4.3,1.7
				s-1.6,2.7-1.6,4.8v14.3h-6.6V8.7h6.6v3.2c0.9-1.1,2-2,3.4-2.6c1.4-0.6,2.9-1,4.5-1C175.6,8.3,178.1,9.3,180,11.3z"/>
			<path d="M209,11.3c1.9,1.9,2.9,4.7,2.9,8.2v15.2h-6.6V20.3c0-2.1-0.5-3.6-1.5-4.8c-1-1.1-2.4-1.7-4.2-1.7s-3.2,0.6-4.3,1.7
				c-1.1,1.1-1.6,2.7-1.6,4.8v14.3h-6.6V8.7h6.6v3.2c0.9-1.1,2-2,3.4-2.6c1.4-0.6,2.9-1,4.5-1C204.6,8.3,207.1,9.3,209,11.3
				L209,11.3z"/>
		</g>
	</g>
</g>
</svg>
