<?xml version="1.0" encoding="utf-8"?>
<!-- Generator: Adobe Illustrator 27.0.0, SVG Export Plug-In . SVG Version: 6.00 Build 0)  -->
<svg version="1.1" id="bars-solid" xmlns="http://www.w3.org/2000/svg" xmlns:xlink="http://www.w3.org/1999/xlink" x="0px" y="0px"
	 viewBox="0 0 24 24" style="enable-background:new 0 0 24 24;" xml:space="preserve">
<style type="text/css">
	.st0{fill:#FFFFFF;}
</style>
<polygon class="st0" points="23,4 23,5 22,5 22,6 2,6 2,5 1,5 1,4 2,4 2,3 22,3 22,4 "/>
<polygon class="st0" points="23,11 23,12 22,12 22,13 2,13 2,12 1,12 1,11 2,11 2,10 22,10 22,11 "/>
<polygon class="st0" points="23,18 23,19 22,19 22,20 2,20 2,19 1,19 1,18 2,18 2,17 22,17 22,18 "/>
</svg>
