<?xml version="1.0" encoding="utf-8"?>
<!-- Generator: Adobe Illustrator 27.0.0, SVG Export Plug-In . SVG Version: 6.00 Build 0)  -->
<svg version="1.1" id="Layer_1" xmlns="http://www.w3.org/2000/svg" xmlns:xlink="http://www.w3.org/1999/xlink" x="0px" y="0px"
	 viewBox="0 0 32 32" style="enable-background:new 0 0 32 32;" xml:space="preserve">
<style type="text/css">
	.st0{clip-path:url(#SVGID_00000027601379581989046670000007986996434223086743_);}
	.st1{fill:#FFFFFF;}
</style>
<g>
	<defs>
		<rect id="SVGID_1_" width="32" height="32"/>
	</defs>
	<clipPath id="SVGID_00000164511876475647237290000001382495483873385102_">
		<use xlink:href="#SVGID_1_"  style="overflow:visible;"/>
	</clipPath>
	<g style="clip-path:url(#SVGID_00000164511876475647237290000001382495483873385102_);">
		<path class="st1" d="M29.7,11.4h-1.5v1.5h-1.5v1.5h1.5V16h1.5v-1.5h1.5v-1.5h-1.5V11.4z"/>
		<path class="st1" d="M29.7,22.1h-1.5v1.5h1.5V22.1z"/>
		<path class="st1" d="M26.7,0.8v1.5h-1.5v1.5h1.5v1.5h1.5V3.8h1.5V2.3h-1.5V0.8H26.7z"/>
		<path class="st1" d="M26.7,8.4h-1.5v1.5h1.5V8.4z"/>
		<path class="st1" d="M25.1,26.7h-1.5v1.5h-1.5v1.5h1.5v1.5h1.5v-1.5h1.5v-1.5h-1.5V26.7z"/>
		<path class="st1" d="M25.1,19h-1.5v1.5h1.5V19z"/>
		<path class="st1" d="M22.1,22.1h-9.1v1.5h7.6v1.5h1.5V22.1z"/>
		<path class="st1" d="M12.9,8.4v1.5h9.1v-3h-1.5v1.5H12.9z"/>
		<path class="st1" d="M20.6,25.1h-3v1.5h3V25.1z"/>
		<path class="st1" d="M19,19v-1.5h1.5V16H19v-1.5h-1.5V16H16v1.5h1.5V19H19z"/>
		<path class="st1" d="M20.6,5.3h-3v1.5h3V5.3z"/>
		<path class="st1" d="M17.5,26.7H9.9v1.5h7.6V26.7z"/>
		<path class="st1" d="M12.9,20.6h-1.5v1.5h1.5V20.6z"/>
		<path class="st1" d="M12.9,9.9h-1.5v1.5h1.5V9.9z"/>
		<path class="st1" d="M17.5,3.8H9.9v1.5h7.6V3.8z"/>
		<path class="st1" d="M11.4,11.4H9.9v9.1h1.5V11.4z"/>
		<path class="st1" d="M9.9,25.1h-3v1.5h3V25.1z"/>
		<path class="st1" d="M9.9,5.3h-3v1.5h3V5.3z"/>
		<path class="st1" d="M6.9,23.6H5.3v1.5h1.5V23.6z"/>
		<path class="st1" d="M6.9,6.9H5.3v1.5h1.5V6.9z"/>
		<path class="st1" d="M5.3,20.6H3.8v3.1h1.5V20.6z"/>
		<path class="st1" d="M5.3,8.4H3.8v3.1h1.5V8.4z"/>
		<path class="st1" d="M3.8,29.7H2.3v1.5h1.5V29.7z"/>
		<path class="st1" d="M3.8,11.4H2.3v9.1h1.5V11.4z"/>
		<path class="st1" d="M2.3,3.8H0.8v1.5h1.5V3.8z"/>
	</g>
</g>
</svg>
