<?xml version="1.0" encoding="utf-8"?>
<!-- Generator: Adobe Illustrator 27.0.0, SVG Export Plug-In . SVG Version: 6.00 Build 0)  -->
<svg version="1.1" id="brightness-high-solid" xmlns="http://www.w3.org/2000/svg" xmlns:xlink="http://www.w3.org/1999/xlink"
	 x="0px" y="0px" viewBox="0 0 24 24" style="enable-background:new 0 0 24 24;" xml:space="preserve">
<style type="text/css">
	.st0{fill:#FFFFFF;}
</style>
<rect x="1" y="11" class="st0" width="5" height="2"/>
<polygon class="st0" points="4,5 3,5 3,4 4,4 4,3 5,3 5,4 6,4 6,5 7,5 7,6 8,6 8,7 7,7 7,8 6,8 6,7 5,7 5,6 4,6 "/>
<polygon class="st0" points="7,17 8,17 8,18 7,18 7,19 6,19 6,20 5,20 5,21 4,21 4,20 3,20 3,19 4,19 4,18 5,18 5,17 6,17 6,16 
	7,16 "/>
<rect x="11" y="18" class="st0" width="2" height="5"/>
<rect x="11" y="1" class="st0" width="2" height="5"/>
<polygon class="st0" points="20,19 21,19 21,20 20,20 20,21 19,21 19,20 18,20 18,19 17,19 17,18 16,18 16,17 17,17 17,16 18,16 
	18,17 19,17 19,18 20,18 "/>
<rect x="18" y="11" class="st0" width="5" height="2"/>
<polygon class="st0" points="17,7 16,7 16,6 17,6 17,5 18,5 18,4 19,4 19,3 20,3 20,4 21,4 21,5 20,5 20,6 19,6 19,7 18,7 18,8 
	17,8 "/>
<polygon class="st0" points="16,16 14,16 14,17 10,17 10,16 8,16 8,14 7,14 7,10 8,10 8,8 10,8 10,7 14,7 14,8 16,8 16,10 17,10 
	17,14 16,14 "/>
</svg>
