<?xml version="1.0" encoding="utf-8"?>
<!-- Generator: Adobe Illustrator 27.0.0, SVG Export Plug-In . SVG Version: 6.00 Build 0)  -->
<svg version="1.1" id="Layer_1" xmlns="http://www.w3.org/2000/svg" xmlns:xlink="http://www.w3.org/1999/xlink" x="0px" y="0px"
	 viewBox="0 0 32 32" style="enable-background:new 0 0 32 32;" xml:space="preserve">
<style type="text/css">
	.st0{fill:#FFFFFF;}
</style>
<path class="st0" d="M29,12.2h-1.5v7.6H29V12.2z"/>
<path class="st0" d="M27.4,19.8h-1.5v3h1.5V19.8z"/>
<path class="st0" d="M27.4,9.1h-1.5v3h1.5V9.1z"/>
<path class="st0" d="M25.9,22.9h-1.5v1.5h1.5V22.9z"/>
<path class="st0" d="M25.9,7.6h-1.5v1.5h1.5V7.6z"/>
<path class="st0" d="M24.4,24.4h-1.5v1.5h1.5V24.4z"/>
<path class="st0" d="M24.4,16.8h-1.5v1.5h1.5V16.8z"/>
<path class="st0" d="M24.4,6.1h-1.5v1.5h1.5V6.1z"/>
<path class="st0" d="M22.9,12.2h-3v3h3V12.2z"/>
<path class="st0" d="M22.9,25.9h-3v1.5h3V25.9z"/>
<path class="st0" d="M21.3,9.1h-1.5v1.5h1.5V9.1z"/>
<path class="st0" d="M22.9,4.6h-3v1.5h3V4.6z"/>
<path class="st0" d="M19.8,27.4h-7.6V29h7.6V27.4z"/>
<path class="st0" d="M19.8,19.8h-3v3h3V19.8z"/>
<path class="st0" d="M15.2,24.4h-1.5v1.5h1.5V24.4z"/>
<path class="st0" d="M15.2,15.2h-1.5v1.5h1.5V15.2z"/>
<path class="st0" d="M19.8,3h-7.6v1.5h7.6V3z"/>
<path class="st0" d="M15.2,7.6h-3.1v3h3.1V7.6z"/>
<path class="st0" d="M12.2,25.9H9.1v1.5h3.1V25.9z"/>
<path class="st0" d="M12.2,21.3h-1.5v1.5h1.5V21.3z"/>
<path class="st0" d="M12.2,4.6H9.1v1.5h3.1V4.6z"/>
<path class="st0" d="M9.1,24.4H7.6v1.5h1.5V24.4z"/>
<path class="st0" d="M9.1,12.2H7.6v1.5h1.5V12.2z"/>
<path class="st0" d="M9.1,6.1H7.6v1.5h1.5V6.1z"/>
<path class="st0" d="M7.6,22.9H6.1v1.5h1.5V22.9z"/>
<path class="st0" d="M9.1,15.2H6.1v3.1h3.1V15.2z"/>
<path class="st0" d="M7.6,7.6H6.1v1.5h1.5V7.6z"/>
<path class="st0" d="M6.1,19.8H4.6v3h1.5V19.8z"/>
<path class="st0" d="M6.1,9.1H4.6v3h1.5V9.1z"/>
<path class="st0" d="M4.6,12.2H3v7.6h1.5V12.2z"/>
</svg>
