<?xml version="1.0" encoding="utf-8"?>
<!-- Generator: Adobe Illustrator 27.0.0, SVG Export Plug-In . SVG Version: 6.00 Build 0)  -->
<svg version="1.1" id="Layer_1" xmlns="http://www.w3.org/2000/svg" xmlns:xlink="http://www.w3.org/1999/xlink" x="0px" y="0px"
	 viewBox="0 0 33 32" style="enable-background:new 0 0 33 32;" xml:space="preserve">
<style type="text/css">
	.st0{fill:#FFFFFF;}
</style>
<g>
	
		<rect x="14.6" y="14" transform="matrix(-1.836970e-16 1 -1 -1.836970e-16 45.5304 12.5304)" class="st0" width="3.9" height="30.1"/>
	<g>
		
			<rect x="15.7" y="-7.3" transform="matrix(-1.836970e-16 1 -1 -1.836970e-16 20.359 -13.6554)" class="st0" width="2.6" height="21.4"/>
		
			<rect x="15.7" y="8.6" transform="matrix(-1.836970e-16 1 -1 -1.836970e-16 36.3313 2.3169)" class="st0" width="2.6" height="21.4"/>
		
			<rect x="14.6" y="8.8" transform="matrix(-1.836970e-16 1 -1 -1.836970e-16 36.451 3.4329)" class="st0" width="3.9" height="22.4"/>
		
			<rect x="14.6" y="-8.2" transform="matrix(-1.836970e-16 1 -1 -1.836970e-16 19.4787 -13.5394)" class="st0" width="3.9" height="22.4"/>
		
			<rect x="1.5" y="4.9" transform="matrix(-1 -1.224647e-16 1.224647e-16 -1 6.7913 22.9116)" class="st0" width="3.9" height="13.1"/>
		
			<rect x="27.7" y="4.9" transform="matrix(-1 -1.224647e-16 1.224647e-16 -1 59.2087 22.9116)" class="st0" width="3.9" height="13.1"/>
	</g>
</g>
</svg>
