<?xml version="1.0" encoding="utf-8"?>
<!-- Generator: Adobe Illustrator 27.0.0, SVG Export Plug-In . SVG Version: 6.00 Build 0)  -->
<svg version="1.1" id="Layer_1" xmlns="http://www.w3.org/2000/svg" xmlns:xlink="http://www.w3.org/1999/xlink" x="0px" y="0px"
	 viewBox="0 0 33 32" style="enable-background:new 0 0 33 32;" xml:space="preserve">
<style type="text/css">
	.st0{clip-path:url(#SVGID_00000043420565218754603860000005342889684707956892_);}
</style>
<g>
	<defs>
		<rect id="SVGID_1_" x="-43.3" y="-40.1" width="32" height="32"/>
	</defs>
	<clipPath id="SVGID_00000068675792258049778610000004437937976218949522_">
		<use xlink:href="#SVGID_1_"  style="overflow:visible;"/>
	</clipPath>
	<g style="clip-path:url(#SVGID_00000068675792258049778610000004437937976218949522_);">
		<path d="M-12.1-38.5h-1.5v18.3h1.5V-38.5z"/>
		<path d="M-41.1-9.6v-1.5h-1.5v3h30.5v-3h-1.5v1.5H-41.1z"/>
		<path d="M-13.6-12.6h-1.5v1.5h1.5V-12.6z"/>
		<path d="M-15.1-14.1h-1.5v1.5h1.5V-14.1z"/>
		<path d="M-36.5-17.2v1.5h18.3v-1.5h-4.6v-1.5h9.1v-1.5h-27.4v1.5h9.1v1.5H-36.5z M-30.4-18.7h6.1v1.5h-6.1V-18.7z"/>
		<path d="M-16.7-15.7h-1.5v1.5h1.5V-15.7z"/>
		<path d="M-15.1-37h-24.4v15.2h24.4V-37z M-16.7-23.3H-38v-12.2h21.3V-23.3z"/>
		<path d="M-18.2-12.6h-1.5v1.5h1.5V-12.6z"/>
		<path d="M-19.7-14.1h-1.5v1.5h1.5V-14.1z"/>
		<path d="M-24.3-29.4h1.5v1.5h1.5v-1.5h1.5v-1.5h1.5v-1.5h-1.5V-34h-1.5v1.5h-1.5V-34h-1.5v1.5h-1.5v1.5h1.5V-29.4z"/>
		<path d="M-22.8-12.6h-1.5v1.5h1.5V-12.6z"/>
		<path d="M-24.3-14.1h-1.5v1.5h1.5V-14.1z"/>
		<path d="M-27.3-12.6h-1.5v1.5h1.5V-12.6z"/>
		<path d="M-28.9-14.1h-1.5v1.5h1.5V-14.1z"/>
		<path d="M-30.4-12.6h-1.5v1.5h1.5V-12.6z"/>
		<path d="M-33.4-14.1H-35v1.5h1.5V-14.1z"/>
		<path d="M-35-12.6h-1.5v1.5h1.5V-12.6z"/>
		<path d="M-36.5-15.7H-38v1.5h1.5V-15.7z"/>
		<path d="M-38-14.1h-1.5v1.5h1.5V-14.1z"/>
		<path d="M-13.6-40.1h-27.4v1.5h27.4V-40.1z"/>
		<path d="M-39.5-12.6h-1.5v1.5h1.5V-12.6z"/>
		<path d="M-41.1-38.5h-1.5v18.3h1.5V-38.5z"/>
	</g>
</g>
<g>
	<rect x="14.6" y="14" transform="matrix(-1.836970e-16 1 -1 -1.836970e-16 45.5304 12.5304)" width="3.9" height="30.1"/>
	<g>
		<rect x="15.7" y="-7.3" transform="matrix(-1.836970e-16 1 -1 -1.836970e-16 20.359 -13.6554)" width="2.6" height="21.4"/>
		<rect x="15.7" y="8.6" transform="matrix(-1.836970e-16 1 -1 -1.836970e-16 36.3313 2.3169)" width="2.6" height="21.4"/>
		<rect x="14.6" y="8.8" transform="matrix(-1.836970e-16 1 -1 -1.836970e-16 36.451 3.4329)" width="3.9" height="22.4"/>
		<rect x="14.6" y="-8.2" transform="matrix(-1.836970e-16 1 -1 -1.836970e-16 19.4787 -13.5394)" width="3.9" height="22.4"/>
		<rect x="1.5" y="4.9" transform="matrix(-1 -1.224647e-16 1.224647e-16 -1 6.7913 22.9116)" width="3.9" height="13.1"/>
		<rect x="27.7" y="4.9" transform="matrix(-1 -1.224647e-16 1.224647e-16 -1 59.2087 22.9116)" width="3.9" height="13.1"/>
	</g>
</g>
</svg>
