<?xml version="1.0" encoding="utf-8"?>
<!-- Generator: Adobe Illustrator 27.0.0, SVG Export Plug-In . SVG Version: 6.00 Build 0)  -->
<svg version="1.1" id="Layer_2_00000162353640861497538440000018433939385449577620_"
	 xmlns="http://www.w3.org/2000/svg" xmlns:xlink="http://www.w3.org/1999/xlink" x="0px" y="0px" viewBox="0 0 39.8 36.4"
	 style="enable-background:new 0 0 39.8 36.4;" xml:space="preserve">
<style type="text/css">
	.st0{fill:#E9F3FF;}
</style>
<g id="Layer_1-2">
	<g>
		<path class="st0" d="M37.3,5H14.5C13.1,5,12,3.9,12,2.5S13.1,0,14.5,0h22.9c1.4,0,2.5,1.1,2.5,2.5S38.7,5,37.3,5L37.3,5z"/>
		<path class="st0" d="M25.4,36.4H2.5c-1.4,0-2.5-1.1-2.5-2.5s1.1-2.5,2.5-2.5h22.9c1.4,0,2.5,1.1,2.5,2.5S26.7,36.4,25.4,36.4z"/>
		<path class="st0" d="M36.3,20.7H3.6c-2,0-3.6-1.1-3.6-2.5s1.6-2.5,3.6-2.5h32.7c2,0,3.6,1.1,3.6,2.5S38.2,20.7,36.3,20.7z"/>
	</g>
</g>
</svg>
