<?xml version="1.0" encoding="UTF-8"?>
<svg id="Layer_2" data-name="Layer 2" xmlns="http://www.w3.org/2000/svg" viewBox="0 0 39.84 36.41">
  <defs>
    <style>
      .cls-1 {
        fill: #f4d9ca;
      }
    </style>
  </defs>
  <g id="Layer_1-2" data-name="Layer 1">
    <path class="cls-1" d="M37.34,5H14.49c-1.38,0-2.5-1.12-2.5-2.5s1.12-2.5,2.5-2.5h22.86c1.38,0,2.5,1.12,2.5,2.5s-1.12,2.5-2.5,2.5Z"/>
    <path class="cls-1" d="M25.36,36.41H2.5c-1.38,0-2.5-1.12-2.5-2.5s1.12-2.5,2.5-2.5H25.36c1.38,0,2.5,1.12,2.5,2.5s-1.12,2.5-2.5,2.5Z"/>
    <path class="cls-1" d="M36.27,20.7H3.58c-1.97,0-3.58-1.12-3.58-2.5s1.6-2.5,3.58-2.5H36.27c1.97,0,3.58,1.12,3.58,2.5s-1.6,2.5-3.58,2.5Z"/>
  </g>
</svg>