<?xml version="1.0" encoding="UTF-8"?>
<svg id="Layer_2" data-name="Layer 2" xmlns="http://www.w3.org/2000/svg" viewBox="0 0 252.78 42.38">
  <defs>
    <style>
      .cls-1 {
        fill: #edcaf4;
      }
    </style>
  </defs>
  <g id="Layer_1-2" data-name="Layer 1">
    <g>
      <path class="cls-1" d="M30.95,28.57H8.03c.19,2.26,.98,4.04,2.38,5.32,1.39,1.28,3.11,1.92,5.15,1.92,2.94,0,5.04-1.26,6.28-3.79h8.54c-.91,3.02-2.64,5.5-5.2,7.44-2.57,1.94-5.71,2.91-9.45,2.91-3.02,0-5.72-.67-8.12-2.01-2.4-1.34-4.26-3.23-5.6-5.69-1.34-2.45-2.01-5.28-2.01-8.49s.66-6.09,1.98-8.54c1.32-2.45,3.17-4.34,5.54-5.66,2.38-1.32,5.11-1.98,8.2-1.98s5.65,.64,8.01,1.92c2.36,1.28,4.19,3.1,5.49,5.46,1.3,2.36,1.95,5.06,1.95,8.12,0,1.13-.08,2.15-.23,3.06Zm-7.98-5.32c-.04-2.04-.77-3.67-2.21-4.89-1.43-1.23-3.19-1.84-5.26-1.84-1.96,0-3.61,.59-4.95,1.78-1.34,1.19-2.16,2.84-2.46,4.95h14.88Z"/>
      <path class="cls-1" d="M47.18,34.57l7.92-24.04h8.43l-11.6,31.34h-9.62L30.78,10.52h8.49l7.92,24.04Z"/>
      <path class="cls-1" d="M94.09,28.57h-22.91c.19,2.26,.98,4.04,2.38,5.32,1.39,1.28,3.11,1.92,5.15,1.92,2.94,0,5.04-1.26,6.28-3.79h8.54c-.91,3.02-2.64,5.5-5.2,7.44-2.57,1.94-5.71,2.91-9.45,2.91-3.02,0-5.72-.67-8.12-2.01-2.4-1.34-4.26-3.23-5.6-5.69-1.34-2.45-2.01-5.28-2.01-8.49s.66-6.09,1.98-8.54c1.32-2.45,3.17-4.34,5.54-5.66,2.38-1.32,5.11-1.98,8.2-1.98s5.65,.64,8.01,1.92c2.36,1.28,4.19,3.1,5.49,5.46,1.3,2.36,1.95,5.06,1.95,8.12,0,1.13-.08,2.15-.23,3.06Zm-7.98-5.32c-.04-2.04-.77-3.67-2.21-4.89-1.43-1.23-3.19-1.84-5.26-1.84-1.96,0-3.61,.59-4.95,1.78-1.34,1.19-2.16,2.84-2.46,4.95h14.88Z"/>
      <path class="cls-1" d="M109.16,11.48c1.64-.94,3.52-1.41,5.63-1.41v8.32h-2.09c-2.49,0-4.37,.59-5.63,1.75-1.26,1.17-1.9,3.21-1.9,6.11v15.62h-7.92V10.52h7.92v4.87c1.02-1.66,2.35-2.96,3.99-3.9Z"/>
      <path class="cls-1" d="M117.14,17.65c1.26-2.45,2.99-4.34,5.18-5.66,2.19-1.32,4.62-1.98,7.3-1.98,2.04,0,3.98,.44,5.83,1.33,1.85,.89,3.32,2.06,4.41,3.54V0h8.03V41.87h-8.03v-4.64c-.98,1.55-2.36,2.79-4.13,3.73-1.77,.94-3.83,1.41-6.17,1.41-2.64,0-5.05-.68-7.24-2.04-2.19-1.36-3.91-3.27-5.18-5.74-1.26-2.47-1.9-5.31-1.9-8.51s.63-5.98,1.9-8.43Zm21.64,3.59c-.75-1.38-1.77-2.43-3.06-3.17-1.28-.74-2.66-1.1-4.13-1.1s-2.83,.36-4.07,1.07c-1.24,.72-2.25,1.76-3.03,3.14-.77,1.38-1.16,3.01-1.16,4.89s.39,3.54,1.16,4.95c.77,1.41,1.79,2.5,3.06,3.25,1.26,.75,2.61,1.13,4.05,1.13s2.85-.37,4.13-1.1c1.28-.74,2.3-1.79,3.06-3.17,.75-1.38,1.13-3.03,1.13-4.95s-.38-3.57-1.13-4.95Z"/>
      <path class="cls-1" d="M152.67,17.65c1.26-2.45,2.98-4.34,5.15-5.66,2.17-1.32,4.59-1.98,7.27-1.98,2.34,0,4.38,.47,6.14,1.41,1.75,.94,3.16,2.13,4.21,3.56v-4.47h7.98v31.34h-7.98v-4.58c-1.02,1.47-2.42,2.69-4.21,3.65-1.79,.96-3.86,1.44-6.2,1.44-2.64,0-5.04-.68-7.21-2.04-2.17-1.36-3.89-3.27-5.15-5.74-1.26-2.47-1.9-5.31-1.9-8.51s.63-5.98,1.9-8.43Zm21.64,3.59c-.75-1.38-1.77-2.43-3.06-3.17-1.28-.74-2.66-1.1-4.13-1.1s-2.83,.36-4.07,1.07c-1.24,.72-2.25,1.76-3.03,3.14-.77,1.38-1.16,3.01-1.16,4.89s.39,3.54,1.16,4.95c.77,1.41,1.79,2.5,3.06,3.25,1.26,.75,2.61,1.13,4.05,1.13s2.85-.37,4.13-1.1c1.28-.74,2.3-1.79,3.06-3.17,.75-1.38,1.13-3.03,1.13-4.95s-.38-3.57-1.13-4.95Z"/>
      <path class="cls-1" d="M214.76,13.61c2.3,2.36,3.45,5.65,3.45,9.87v18.39h-7.92V24.55c0-2.49-.62-4.4-1.87-5.74-1.24-1.34-2.94-2.01-5.09-2.01s-3.91,.67-5.18,2.01c-1.26,1.34-1.9,3.25-1.9,5.74v17.31h-7.92V10.52h7.92v3.9c1.06-1.36,2.4-2.42,4.05-3.2,1.64-.77,3.44-1.16,5.4-1.16,3.73,0,6.75,1.18,9.05,3.54Z"/>
      <path class="cls-1" d="M249.33,13.61c2.3,2.36,3.45,5.65,3.45,9.87v18.39h-7.92V24.55c0-2.49-.62-4.4-1.87-5.74-1.24-1.34-2.94-2.01-5.09-2.01s-3.91,.67-5.18,2.01c-1.26,1.34-1.9,3.25-1.9,5.74v17.31h-7.92V10.52h7.92v3.9c1.06-1.36,2.4-2.42,4.05-3.2,1.64-.77,3.44-1.16,5.4-1.16,3.73,0,6.75,1.18,9.05,3.54Z"/>
    </g>
  </g>
</svg>