<?xml version="1.0" encoding="utf-8"?>
<!-- Generator: Adobe Illustrator 27.0.0, SVG Export Plug-In . SVG Version: 6.00 Build 0)  -->
<svg version="1.1" id="Layer_2_00000168831875847269477030000001962659515368769199_"
	 xmlns="http://www.w3.org/2000/svg" xmlns:xlink="http://www.w3.org/1999/xlink" x="0px" y="0px" viewBox="0 0 252.8 42.4"
	 style="enable-background:new 0 0 252.8 42.4;" xml:space="preserve">
<style type="text/css">
	.st0{fill:#8C4CF2;}
</style>
<g id="Layer_1-2">
	<g>
		<path class="st0" d="M31,28.6H8c0.2,2.3,1,4,2.4,5.3c1.4,1.3,3.1,1.9,5.1,1.9c2.9,0,5-1.3,6.3-3.8h8.5c-0.9,3-2.6,5.5-5.2,7.4
			s-5.7,2.9-9.4,2.9c-3,0-5.7-0.7-8.1-2S3.4,37.1,2,34.7c-1.3-2.5-2-5.3-2-8.5s0.7-6.1,2-8.5s3.2-4.3,5.5-5.7c2.4-1.3,5.1-2,8.2-2
			s5.7,0.6,8,1.9s4.2,3.1,5.5,5.5s2,5.1,2,8.1C31.2,26.6,31.1,27.6,31,28.6L31,28.6z M23,23.2c0-2-0.8-3.7-2.2-4.9
			c-1.4-1.2-3.2-1.8-5.3-1.8c-2,0-3.6,0.6-4.9,1.8s-2.2,2.8-2.5,4.9H23z"/>
		<path class="st0" d="M47.2,34.6l7.9-24h8.4L51.9,41.9h-9.6L30.8,10.5h8.5L47.2,34.6L47.2,34.6z"/>
		<path class="st0" d="M94.1,28.6H71.2c0.2,2.3,1,4,2.4,5.3c1.4,1.3,3.1,1.9,5.2,1.9c2.9,0,5-1.3,6.3-3.8h8.5
			c-0.9,3-2.6,5.5-5.2,7.4s-5.7,2.9-9.4,2.9c-3,0-5.7-0.7-8.1-2s-4.3-3.2-5.6-5.7c-1.3-2.5-2-5.3-2-8.5s0.7-6.1,2-8.5
			s3.2-4.3,5.5-5.7c2.4-1.3,5.1-2,8.2-2s5.7,0.6,8,1.9s4.2,3.1,5.5,5.5s1.9,5.1,1.9,8.1C94.3,26.6,94.2,27.6,94.1,28.6L94.1,28.6z
			 M86.1,23.2c0-2-0.8-3.7-2.2-4.9c-1.4-1.2-3.2-1.8-5.3-1.8c-2,0-3.6,0.6-4.9,1.8s-2.2,2.8-2.5,4.9H86.1z"/>
		<path class="st0" d="M109.2,11.5c1.6-0.9,3.5-1.4,5.6-1.4v8.3h-2.1c-2.5,0-4.4,0.6-5.6,1.8c-1.3,1.2-1.9,3.2-1.9,6.1v15.6h-7.9
			V10.5h7.9v4.9C106.2,13.7,107.5,12.4,109.2,11.5L109.2,11.5z"/>
		<path class="st0" d="M117.1,17.6c1.3-2.4,3-4.3,5.2-5.7s4.6-2,7.3-2c2,0,4,0.4,5.8,1.3s3.3,2.1,4.4,3.5V0h8v41.9h-8v-4.6
			c-1,1.5-2.4,2.8-4.1,3.7s-3.8,1.4-6.2,1.4c-2.6,0-5.1-0.7-7.2-2c-2.2-1.4-3.9-3.3-5.2-5.7c-1.3-2.5-1.9-5.3-1.9-8.5
			S115.9,20.1,117.1,17.6z M138.8,21.2c-0.8-1.4-1.8-2.4-3.1-3.2c-1.3-0.7-2.7-1.1-4.1-1.1s-2.8,0.4-4.1,1.1c-1.2,0.7-2.2,1.8-3,3.1
			c-0.8,1.4-1.2,3-1.2,4.9s0.4,3.5,1.2,4.9c0.8,1.4,1.8,2.5,3.1,3.2c1.3,0.8,2.6,1.1,4,1.1s2.9-0.4,4.1-1.1c1.3-0.7,2.3-1.8,3.1-3.2
			c0.8-1.4,1.1-3,1.1-4.9S139.5,22.6,138.8,21.2L138.8,21.2z"/>
		<path class="st0" d="M152.7,17.6c1.3-2.4,3-4.3,5.1-5.7s4.6-2,7.3-2c2.3,0,4.4,0.5,6.1,1.4c1.8,0.9,3.2,2.1,4.2,3.6v-4.5h8v31.3
			h-8v-4.6c-1,1.5-2.4,2.7-4.2,3.7s-3.9,1.4-6.2,1.4c-2.6,0-5-0.7-7.2-2c-2.2-1.4-3.9-3.3-5.1-5.7s-1.9-5.3-1.9-8.5
			S151.4,20.1,152.7,17.6L152.7,17.6z M174.3,21.2c-0.8-1.4-1.8-2.4-3.1-3.2c-1.3-0.7-2.7-1.1-4.1-1.1s-2.8,0.4-4.1,1.1
			c-1.2,0.7-2.2,1.8-3,3.1c-0.8,1.4-1.2,3-1.2,4.9s0.4,3.5,1.2,4.9s1.8,2.5,3.1,3.2c1.3,0.8,2.6,1.1,4.1,1.1s2.9-0.4,4.1-1.1
			c1.3-0.7,2.3-1.8,3.1-3.2c0.8-1.4,1.1-3,1.1-4.9S175.1,22.6,174.3,21.2L174.3,21.2z"/>
		<path class="st0" d="M214.8,13.6c2.3,2.4,3.4,5.7,3.4,9.9v18.4h-7.9V24.5c0-2.5-0.6-4.4-1.9-5.7c-1.2-1.3-2.9-2-5.1-2
			s-3.9,0.7-5.2,2s-1.9,3.2-1.9,5.7v17.3h-7.9V10.5h7.9v3.9c1.1-1.4,2.4-2.4,4.1-3.2c1.6-0.8,3.4-1.2,5.4-1.2
			C209.4,10.1,212.5,11.2,214.8,13.6L214.8,13.6z"/>
		<path class="st0" d="M249.3,13.6c2.3,2.4,3.4,5.7,3.4,9.9v18.4h-7.9V24.5c0-2.5-0.6-4.4-1.9-5.7c-1.2-1.3-2.9-2-5.1-2
			s-3.9,0.7-5.2,2s-1.9,3.2-1.9,5.7v17.3h-7.9V10.5h7.9v3.9c1.1-1.4,2.4-2.4,4.1-3.2c1.6-0.8,3.4-1.2,5.4-1.2
			C244,10.1,247,11.2,249.3,13.6L249.3,13.6z"/>
	</g>
</g>
</svg>
