<?xml version="1.0" encoding="utf-8"?>
<!-- Generator: Adobe Illustrator 27.0.0, SVG Export Plug-In . SVG Version: 6.00 Build 0)  -->
<svg version="1.1" id="Layer_1" xmlns="http://www.w3.org/2000/svg" xmlns:xlink="http://www.w3.org/1999/xlink" x="0px" y="0px"
	 viewBox="0 0 159 181" style="enable-background:new 0 0 159 181;" xml:space="preserve">
<style type="text/css">
	.st0{clip-path:url(#SVGID_00000123433157381443219860000003493708002653534396_);}
	.st1{opacity:0.3;fill:#AFAFAF;enable-background:new    ;}
	.st2{fill-rule:evenodd;clip-rule:evenodd;fill:#F49000;}
	.st3{fill:#4EC602;}
	.st4{fill-rule:evenodd;clip-rule:evenodd;fill:#4EC602;}
	.st5{fill-rule:evenodd;clip-rule:evenodd;fill:#58CC02;}
	.st6{fill:#89E219;}
	.st7{fill-rule:evenodd;clip-rule:evenodd;fill:#89E219;}
	.st8{fill-rule:evenodd;clip-rule:evenodd;fill:#FFFFFF;}
	.st9{fill-rule:evenodd;clip-rule:evenodd;fill:#122431;}
	.st10{fill:#FFFFFF;}
	.st11{fill:#9AF300;}
	.st12{fill-rule:evenodd;clip-rule:evenodd;fill:#CD7900;}
	.st13{fill-rule:evenodd;clip-rule:evenodd;fill:#FFCAFF;}
	.st14{fill:#FFC200;}
	.st15{fill:#FFDE00;}
	.st16{fill-rule:evenodd;clip-rule:evenodd;fill:#8EE000;}
	.st17{fill-rule:evenodd;clip-rule:evenodd;fill:#FFAB8D;}
</style>
<g>
	<defs>
		<rect id="SVGID_1_" x="0.5" y="0.8" width="158" height="180"/>
	</defs>
	<clipPath id="SVGID_00000002359750310269903300000017465953300347052730_">
		<use xlink:href="#SVGID_1_"  style="overflow:visible;"/>
	</clipPath>
	<g style="clip-path:url(#SVGID_00000002359750310269903300000017465953300347052730_);">
		<path class="st1" d="M139.7,180.8c2.3,0,4.2-1.9,4.2-4.2c0-2.3-1.9-4.2-4.2-4.2H4.7c-2.3,0-4.2,1.9-4.2,4.2c0,2.3,1.9,4.2,4.2,4.2
			H139.7z"/>
		<path class="st2" d="M156.6,154.7c-2.6,2.8-7,2.9-9.8,0.3l-8-7.5c-2.8-2.6-3-7-0.3-9.8c2.6-2.8,7-2.9,9.8-0.3l8,7.5
			C159.1,147.5,159.3,152,156.6,154.7z"/>
		<path class="st2" d="M156.6,108.3c-2.6-2.8-7-3-9.8-0.3l-8,7.5c-2.8,2.6-3,7-0.3,9.8c2.6,2.8,7,3,9.8,0.3l8-7.5
			C159.1,115.5,159.3,111.1,156.6,108.3z"/>
		<path class="st3" d="M4.6,127.5h29.2v-4.8l13.4,13.9c0.1,0.1,0.2,0.2,0.3,0.3c8,8.3,7.8,21.6-0.5,29.6c-8.3,8-21.4,7.7-29.4-0.6
			c-0.3-0.3-0.6-0.6-0.9-1C7.4,154.4,3.3,140.8,4.6,127.5z"/>
		<path class="st4" d="M0.9,128.8c0-3,2.4-5.5,5.5-5.5h9.1c3,0,5.5,2.4,5.5,5.5c0,3-2.4,5.5-5.5,5.5H6.4
			C3.4,134.3,0.9,131.8,0.9,128.8z"/>
		<path class="st5" d="M46.4,164.8l18.8,7.6h54.2c8.2-5.2,14.9-12.9,18.8-22.6c10-24.7-1.9-52.8-26.7-62.8L82.6,75.2
			c-24.7-10-52.9,1.9-62.9,26.7C9.7,126.7,21.6,154.8,46.4,164.8z"/>
		<path class="st5" d="M99.2,60.7c-22.2,6.6-36.5,9.9-43.1,9.9c-3.8,0-7.7-1.6-11.8-4.8c-7.8-6.2-19.2-4.8-25.4,3
			C16.4,72,15,75.9,15,80v38.9c0,20.8,16.9,37.7,37.7,37.7c5.5,0,11-1.2,16-3.5c24.3,4.8,48-10.9,52.8-35.1c0.6-2.9,0.9-5.9,0.9-8.8
			V78c0-10-8.1-18.1-18.1-18.1C102.6,59.9,100.9,60.2,99.2,60.7z"/>
		<path class="st6" d="M80.8,163.8c3.2-1.7,4.9-5.1,4.3-8.4c-0.1-0.7-0.9-1.1-1.5-0.7L71.7,161c-0.6,0.3-0.8,1.2-0.3,1.6
			C73.8,165,77.6,165.4,80.8,163.8z"/>
		<path class="st6" d="M83.5,168c-0.1-0.7-0.9-1-1.5-0.7l-9.6,5.1h10.5C83.4,171,83.7,169.5,83.5,168z"/>
		<path class="st6" d="M67,164.2c-0.1-0.7-0.9-1-1.5-0.7l-9.6,5.1l7.9,3.2C66.2,170,67.5,167,67,164.2z"/>
		<path class="st7" d="M60.8,86.8c-4.6,5-12.2,4.2-16,0c-6-6.4-7,3.2-3.1,29h22.5C65.1,93.1,63.9,83.4,60.8,86.8z"/>
		<path class="st7" d="M79.2,79.4h-1.5c-11.1,0-20.1,9-20.1,20.1v12.2c0,11.1,9,20.1,20.1,20.1h1.4c11.1,0,20.1-9,20.1-20.1V99.4
			C99.3,88.4,90.3,79.4,79.2,79.4z"/>
		<path class="st6" d="M75.2,71.2L58.9,88.9c-0.8,0.9-0.5,2.4,0.6,3c5.6,2.5,12.3,1.1,16.5-3.6c4.2-4.7,4.9-11.4,1.9-16.7
			C77.2,70.4,76.1,70.2,75.2,71.2z"/>
		<path class="st6" d="M83.3,75.4L67.4,93c-0.8,0.9-0.5,2.4,0.6,3c5.6,2.5,12.3,1.1,16.5-3.6c4.2-4.7,4.9-11.4,1.9-16.7
			C85.7,74.6,84.2,74.4,83.3,75.4z"/>
		<path class="st6" d="M31,71.8l13.2,14.3c0.7,0.8,0.3,2.1-0.8,2.7c-5.3,2.7-11.3,2.1-14.7-1.7c-3.4-3.8-3.4-9.8-0.2-14.8
			C29.2,71.3,30.3,71.1,31,71.8z"/>
		<path class="st6" d="M24.5,76l12.9,14.3c0.7,0.8,0.3,2.1-0.8,2.7c-5.3,2.7-11.3,2.1-14.7-1.7c-3.4-3.8-3.4-9.8-0.2-14.8
			C22.4,75.5,23.8,75.2,24.5,76z"/>
		<path class="st7" d="M30.7,79.4c-8.7,0-15.8,7.1-15.8,15.8v20.7c0,8.7,7.1,15.8,15.8,15.8c8.7,0,15.8-7.1,15.8-15.8V95.2
			C46.5,86.5,39.4,79.4,30.7,79.4z"/>
		<path class="st8" d="M32.8,86.8c-6.5,0-11.8,5.3-11.8,11.8v14.6c0,6.5,5.3,11.8,11.8,11.8s11.8-5.3,11.8-11.8V98.6
			C44.6,92.1,39.3,86.8,32.8,86.8z"/>
		<path class="st9" d="M32.7,95.1c-3.2,0-5.7,2.6-5.7,5.7v10.3c0,3.2,2.6,5.7,5.7,5.7s5.7-2.6,5.7-5.7v-10.3
			C38.5,97.6,35.9,95.1,32.7,95.1z"/>
		<path class="st10" d="M27.5,107.3c2.1,0,3.8-1.7,3.8-3.8s-1.7-3.8-3.8-3.8c-2.1,0-3.8,1.7-3.8,3.8S25.4,107.3,27.5,107.3z"/>
		<path class="st6" d="M15.4,123.3c-3.7,0-6.8-2.9-6.8-6.6c0-3.7,2.9-6.8,6.6-6.8c0.3,0,0.8,0,1.5,0c1.1,0,2.3,0.1,3.5,0.2
			c3.7,0.3,7.4,1,11.1,2.1c3.8,1.1,7.2,2.6,10.2,4.6c3.1,2.1,3.9,6.3,1.9,9.4c-2.1,3.1-6.3,3.9-9.4,1.9c-1.8-1.2-4-2.1-6.5-2.9
			c-2.7-0.8-5.6-1.3-8.4-1.6c-1-0.1-1.9-0.2-2.7-0.2C15.8,123.3,15.5,123.3,15.4,123.3z"/>
		<path class="st7" d="M19.2,87.1l21.5-0.8l8.5,14.9c-5.1-0.6-9.9-1-14.3-1s-9.5,0.7-15.2,2L19.2,87.1z"/>
		<path class="st11" d="M16.9,116.9c-1.3,0.2-2.4-0.7-2.7-1.9c-0.2-1.3,0.7-2.4,1.9-2.7c2.5-0.4,4.7-0.1,6.6,1
			c1.1,0.6,1.5,2.1,0.8,3.2c-0.6,1.1-2.1,1.5-3.2,0.8C19.6,116.8,18.4,116.6,16.9,116.9z"/>
		<path class="st2" d="M51.9,113.2c-4.2,0-7.6,3.4-7.6,7.5v14c0,4.2,3.4,7.5,7.6,7.5s7.6-3.4,7.6-7.5v-14
			C59.5,116.6,56.1,113.2,51.9,113.2z"/>
		<path class="st12" d="M52.4,114.4c-3.7,0-6.7,3-6.7,6.7v13.6c0,2.6,2.1,4.7,4.7,4.7c2.7,0,5.1-2,5.4-4.7L58,121
			c0.5-3.1-1.6-6-4.8-6.5C52.9,114.5,52.6,114.4,52.4,114.4z"/>
		<path class="st13" d="M48.6,137.4c0,0.6,0,1.1,0.2,1.7c0.5,0.2,1.1,0.3,1.6,0.3c2.7,0,5.1-2,5.4-4.7l1.1-6.7
			C52.2,128.6,48.6,132.6,48.6,137.4z"/>
		<path class="st14" d="M61.8,119.8c-0.8-5-5.3-8.7-10.5-8.7s-9.7,3.8-10.5,8.7l0,0.3l5.2,1.8l15.9-1.8L61.8,119.8z"/>
		<path class="st15" d="M53,115.9c0.8,0.3,1.6-0.2,1.9-1c0.3-0.8-0.2-1.6-1-1.9c-1.9-0.6-3.9-0.6-5.8,0c-0.8,0.3-1.2,1.1-1,1.9
			c0.3,0.8,1.1,1.2,1.9,1C50.4,115.4,51.7,115.4,53,115.9z"/>
		<path class="st8" d="M77.8,86.4c-8.2,0-14.8,6.6-14.8,14.8v9.1c0,8.2,6.6,14.8,14.8,14.8s14.8-6.6,14.8-14.8v-9.1
			C92.6,93,86,86.4,77.8,86.4z"/>
		<path class="st9" d="M75,95.1c-3.8,0-6.9,3.1-6.9,6.9v7.8c0,3.8,3.1,6.9,6.9,6.9c3.8,0,6.9-3.1,6.9-6.9V102
			C81.9,98.2,78.8,95.1,75,95.1z"/>
		<path class="st10" d="M69.7,107.3c2.1,0,3.8-1.7,3.8-3.8c0-2.1-1.7-3.8-3.8-3.8s-3.8,1.7-3.8,3.8
			C65.9,105.6,67.6,107.3,69.7,107.3z"/>
		<path class="st6" d="M97.9,123.8c3.7,0.3,7-2.4,7.3-6.2c0.3-3.7-2.4-7-6.2-7.2c-0.4,0-1-0.1-1.9-0.1c-1.4,0-2.9-0.1-4.6-0.1
			c-4.8,0-9.5,0.3-14.2,1.1c-4,0.6-7.6,1.6-10.9,2.9c-0.3,0.1-1.7,0.6-1.6,0.6c-0.3,0.1-0.5,0.2-0.7,0.3c-0.8,0.3-1.5,0.6-2.2,1
			c-3.3,1.8-4.5,5.9-2.7,9.1c1.8,3.3,5.9,4.5,9.2,2.7c0,0,0.3-0.1,0.7-0.3c0.1,0,0.3-0.1,0.5-0.2c0.1,0,0.3-0.1,0.5-0.2
			c0,0,0.4-0.1,0.5-0.2c0.4-0.2,0.7-0.3,1-0.4c2.3-0.9,5-1.6,8.1-2.1c3.8-0.6,7.9-0.9,12-0.9c1.4,0,2.7,0,3.9,0.1c0.4,0,0.8,0,1.1,0
			C97.8,123.8,97.9,123.8,97.9,123.8z"/>
		<path class="st7" d="M93.8,87l-24.8-1.7l-9.1,15.8c5.2-0.8,9.9-1.1,14.2-0.8c4.3,0.3,10.5,1.3,18.6,3L93.8,87z"/>
		<path class="st11" d="M90.4,116.9c1.3,0.2,2.4-0.7,2.7-1.9c0.2-1.3-0.7-2.4-1.9-2.7c-2.5-0.4-4.7-0.1-6.6,1
			c-1.1,0.6-1.5,2.1-0.8,3.2c0.6,1.1,2.1,1.5,3.2,0.8C87.7,116.8,88.9,116.6,90.4,116.9z"/>
		<path class="st16" d="M72.2,119.9h16.5l-4.9,6.7H72.2V119.9z"/>
		<path class="st4" d="M85,128.1c0-3,2.4-5.5,5.5-5.5H117c3,0,5.5,2.4,5.5,5.5s-2.4,5.5-5.5,5.5H90.4C87.4,133.6,85,131.2,85,128.1z
			"/>
		<path class="st3" d="M89,124.6h29.9L121,149c0,0.1,0,0.3,0,0.4c1,11.5-7.5,21.9-19,22.9c-11.5,1-21.6-7.8-22.6-19.3
			c0-0.5-0.1-0.9-0.1-1.3c-0.4-9.3,1.9-18.5,6.2-26.2C85.8,125.1,89,124.6,89,124.6z"/>
		<path class="st17" d="M85.6,55.4c1-0.4,1.8-1.3,2-2.4c0.4-1.8-0.8-3.6-2.7-4c-1.1-0.3-2.3,0.1-3.1,0.8c-0.4-1-1.4-1.8-2.5-2
			c-1.9-0.4-3.7,0.8-4.1,2.6c-0.2,1.1,0.1,2.1,0.7,2.8l2.7,3.8c0.7,0.9,1.9,1.2,3,0.6L85.6,55.4z"/>
	</g>
</g>
</svg>
