<svg width="142" height="136" viewBox="0 0 142 136" fill="none" xmlns="http://www.w3.org/2000/svg"><g clip-path="url(#clip0_9055_122146)"><path d="M27.1497 56.4898C27.1497 56.5339 27.1503 56.5779 27.1514 56.6219C27.1503 56.7138 27.1497 56.8057 27.1497 56.8978C27.1497 69.0965 37.2051 78.944 49.5575 78.944C61.91 78.944 71.9654 69.0965 71.9654 56.8978C71.9654 51.7892 70.1977 47.0852 67.2358 43.3493C67.1673 43.2478 67.0948 43.1483 67.0183 43.0509L53.717 26.1278C53.4608 25.8018 53.1674 25.507 52.8426 25.2494L51.9702 26.3494L52.8426 25.2494C50.5446 23.4267 47.2103 23.8221 45.3981 26.1278L38.5061 34.8964L35.2909 32.8435C34.4413 32.301 33.4548 32.0126 32.447 32.0126C29.5154 32.0126 27.1497 34.3982 27.1497 37.3276V56.4898Z" fill="#FF9600" stroke="#FDED00" style="fill:#FF9600;fill:color(display-p3 1.0000 0.5882 0.0000);fill-opacity:1;stroke:#FDED00;stroke:color(display-p3 0.9922 0.9294 0.0000);stroke-opacity:1;" stroke-width="2.808"/><path opacity="0.89" d="M54.6953 35.263C55.0159 33.4739 52.576 31.0166 50.2463 31.8078C49.5718 32.0369 49.3309 32.8114 49.4727 33.5095L49.6405 34.3351C50.1076 36.6339 52.8008 38.1577 54.2165 36.2872C54.4571 35.9693 54.6302 35.6265 54.6953 35.263Z" fill="#FFFBDF" style="fill:#FFFBDF;fill:color(display-p3 1.0000 0.9843 0.8745);fill-opacity:1;"/><path opacity="0.3" fill-rule="evenodd" clip-rule="evenodd" d="M55.1306 39.9337C55.8506 39.1952 57.033 39.1803 57.7715 39.9003C58.3828 40.4965 59.2855 41.5004 60.0872 42.6514C60.8553 43.754 61.6959 45.2221 61.9091 46.7065C62.0558 47.7274 61.3471 48.6739 60.3261 48.8206C59.3052 48.9672 58.3587 48.2585 58.212 47.2376C58.127 46.6462 57.7079 45.7704 57.0224 44.7863C56.3706 43.8506 55.6259 43.0251 55.1639 42.5746C54.4254 41.8545 54.4105 40.6721 55.1306 39.9337Z" fill="#FEE000" style="fill:#FEE000;fill:color(display-p3 0.9961 0.8784 0.0000);fill-opacity:1;"/><path fill-rule="evenodd" clip-rule="evenodd" d="M28.5537 51.7168C28.5537 51.7571 28.5544 51.7974 28.5557 51.8376C28.5544 51.9332 28.5537 52.0289 28.5537 52.1248V51.7168ZM70.4225 54.5115C70.5142 55.2946 70.5614 56.091 70.5614 56.8982C70.5614 68.2986 61.1576 77.5405 49.5575 77.5405C37.9574 77.5405 28.5537 68.2986 28.5537 56.8982C28.5537 56.8024 28.5544 56.7066 28.5557 56.6111C28.5544 56.5708 28.5537 56.5305 28.5537 56.4902V52.1248C28.5537 63.5252 37.9574 72.767 49.5575 72.767C60.3363 72.767 69.2187 64.7876 70.4225 54.5115Z" fill="#FF7D13" style="fill:#FF7D13;fill:color(display-p3 1.0000 0.4902 0.0745);fill-opacity:1;"/><path d="M42.4342 54.8441C42.4596 54.8059 42.4869 54.7688 42.5158 54.7327L48.236 47.6202C48.8155 46.8996 49.8768 46.7794 50.6065 47.3518C50.7071 47.4307 50.7984 47.5208 50.8783 47.6202L56.5985 54.7327C56.6278 54.7692 56.6552 54.8066 56.6807 54.8448C57.8996 56.3281 58.627 58.2012 58.627 60.2374C58.627 65.0486 54.5663 68.9488 49.5571 68.9488C44.548 68.9488 40.4873 65.0486 40.4873 60.2374C40.4873 58.2008 41.215 56.3275 42.4342 54.8441Z" fill="#FBE56D" style="fill:#FBE56D;fill:color(display-p3 0.9843 0.8980 0.4275);fill-opacity:1;"/><rect opacity="0.4" x="70.3936" y="29.7109" width="5.17003" height="5.17003" rx="1.6848" transform="rotate(29.0766 70.3936 29.7109)" fill="#FFB100" style="fill:#FFB100;fill:color(display-p3 1.0000 0.6957 0.0000);fill-opacity:1;"/><rect opacity="0.4" x="63.5947" y="20.3984" width="3.95512" height="3.95512" rx="1.1232" transform="rotate(29.0766 63.5947 20.3984)" fill="#FDED00" style="fill:#FDED00;fill:color(display-p3 0.9922 0.9294 0.0000);fill-opacity:1;"/><rect x="61.0977" y="123.852" width="3.90064" height="16.126" rx="1.95032" transform="rotate(-2.67263 61.0977 123.852)" fill="#200C3C" style="fill:#200C3C;fill:color(display-p3 0.1255 0.0471 0.2353);fill-opacity:1;"/><rect x="55.9473" y="121.951" width="17.0412" height="5.57412" transform="rotate(29.8069 55.9473 121.951)" fill="#FFB388" style="fill:#FFB388;fill:color(display-p3 1.0000 0.7020 0.5333);fill-opacity:1;"/><path d="M76.8081 131.641L81.0798 120.893L93.0805 139.215L64.787 138.588L64.3438 124.19L74.5846 132.24C75.3397 132.834 76.4533 132.533 76.8081 131.641Z" fill="#200C3C" style="fill:#200C3C;fill:color(display-p3 0.1255 0.0471 0.2353);fill-opacity:1;"/><path fill-rule="evenodd" clip-rule="evenodd" d="M76.4165 68.3301C94.9134 68.3301 102.742 88.3146 103.774 106.667C103.774 108.608 90.4574 114.252 82.7994 114.252C82.6769 114.252 82.559 114.253 82.4458 114.254C81.1803 114.262 80.502 114.266 80.502 113.17C80.502 112.731 80.8118 109.099 81.207 104.467C81.6709 99.0279 82.2524 92.2111 82.5879 87.5663C82.5421 87.3237 82.669 86.7724 83.5305 86.8386C84.6855 86.9275 86.6762 86.3007 86.9604 84.1489C87.2446 81.997 85.9048 80.2917 83.5093 80.6571C82.5304 80.8065 79.4353 81.5803 75.9308 82.4564C73.8702 82.9716 71.668 83.5222 69.6712 84.002L78.9945 99.8135L78.8901 112.837C70.2704 116.102 58.9669 115.895 56.4565 115.509C53.9461 115.123 52.0791 114.506 52.0791 112.033C52.0791 87.3803 55.1945 78.6021 61.6539 73.6837C64.5008 70.8542 69.2136 68.3301 76.4165 68.3301Z" fill="url(#paint0_radial_9055_122146)" style=""/><path fill-rule="evenodd" clip-rule="evenodd" d="M76.4165 68.3301C94.9134 68.3301 102.742 88.3146 103.774 106.667C103.774 108.608 90.4574 114.252 82.7994 114.252C82.6769 114.252 82.559 114.253 82.4458 114.254C81.1803 114.262 80.502 114.266 80.502 113.17C80.502 112.731 80.8118 109.099 81.207 104.467C81.6709 99.0279 82.2524 92.2111 82.5879 87.5663C82.5421 87.3237 82.669 86.7724 83.5305 86.8386C84.6855 86.9275 86.6762 86.3007 86.9604 84.1489C87.2446 81.997 85.9048 80.2917 83.5093 80.6571C82.5304 80.8065 79.4353 81.5803 75.9308 82.4564C73.8702 82.9716 71.668 83.5222 69.6712 84.002L78.9945 99.8135L78.8901 112.837C70.2704 116.102 58.9669 115.895 56.4565 115.509C53.9461 115.123 52.0791 114.506 52.0791 112.033C52.0791 87.3803 55.1945 78.6021 61.6539 73.6837C64.5008 70.8542 69.2136 68.3301 76.4165 68.3301Z" fill="#852280" style="fill:#852280;fill:color(display-p3 0.5216 0.1333 0.5020);fill-opacity:1;"/><path fill-rule="evenodd" clip-rule="evenodd" d="M78.4133 113.014C69.8588 116.094 58.9209 115.888 56.4565 115.509C54.1743 115.158 52.4238 114.616 52.1245 112.662C54.4625 111.387 58.9389 110.391 61.156 109.955C63.9172 109.412 76.8714 108.809 76.8714 108.809L78.4133 113.014Z" fill="url(#paint1_linear_9055_122146)" style=""/><path opacity="0.98" d="M79.002 112.156C70.4199 115.518 59.1148 115.44 56.6002 115.082C54.0856 114.725 52.2117 114.129 52.1836 111.656" stroke="#FEE300" style="stroke:#FEE300;stroke:color(display-p3 0.9961 0.8902 0.0000);stroke-opacity:1;" stroke-width="1.02643" stroke-linecap="round"/><path fill-rule="evenodd" clip-rule="evenodd" d="M58.0749 81.2018C58.3656 83.8742 60.551 85.6871 63.6546 85.2855C65.6433 85.0282 71.1653 83.6476 75.9304 82.4563C79.4349 81.5801 82.53 80.8063 83.5089 80.657C85.9044 80.2916 87.2442 81.9968 86.96 84.1487C86.6758 86.3005 84.6851 86.9273 83.5301 86.8384C82.6686 86.7722 82.5417 87.3235 82.5875 87.5661C82.252 92.211 81.6705 99.0277 81.2066 104.466C81.0262 106.581 80.8635 108.487 80.7401 109.977C75.7514 111.269 68.9673 112.258 64.765 112.047C56.6426 111.802 56.2365 101.851 56.2055 95.3492C56.1851 91.0653 56.904 85.3435 58.0749 81.2018Z" fill="url(#paint2_linear_9055_122146)" style=""/><path fill-rule="evenodd" clip-rule="evenodd" d="M30.0134 88.1063C24.3255 86.2203 18.4098 88.8205 16.02 93.9587C14.3261 97.6007 13.6814 100.378 12.7909 104.215C12.4251 105.791 12.0179 107.546 11.4794 109.612C11.1126 111.02 10.166 112.1 9.08471 113.334C7.01478 115.695 4.45123 118.62 4.51635 125.485C4.6155 135.937 13.1836 141.364 23.6787 142.523C31.2425 143.358 36.5443 141.188 40.4713 138.18C47.4453 137.071 51.5823 132.075 53.3636 129.08C55.2237 125.953 55.8554 120.737 52.941 119.146C52.7805 119.058 52.6208 118.982 52.4624 118.916C52.4904 118.82 52.5182 118.725 52.5458 118.629C54.1845 112.952 54.4236 106.703 53.9626 102.37C53.5015 98.0367 51.9567 95.4664 49.8008 93.5166C47.6449 91.5668 44.6652 90.8226 42.7258 90.9817C40.7863 91.1408 38.6764 91.2755 38.0405 90.9791C37.7013 90.8475 37.4095 90.732 37.1295 90.6211C35.7883 90.09 34.7191 89.6666 30.0134 88.1063Z" fill="url(#paint3_radial_9055_122146)" style=""/><path fill-rule="evenodd" clip-rule="evenodd" d="M30.0134 88.1063C24.3255 86.2203 18.4098 88.8205 16.02 93.9587C14.3261 97.6007 13.6814 100.378 12.7909 104.215C12.4251 105.791 12.0179 107.546 11.4794 109.612C11.1126 111.02 10.166 112.1 9.08471 113.334C7.01478 115.695 4.45123 118.62 4.51635 125.485C4.6155 135.937 13.1836 141.364 23.6787 142.523C31.2425 143.358 36.5443 141.188 40.4713 138.18C47.4453 137.071 51.5823 132.075 53.3636 129.08C55.2237 125.953 55.8554 120.737 52.941 119.146C52.7805 119.058 52.6208 118.982 52.4624 118.916C52.4904 118.82 52.5182 118.725 52.5458 118.629C54.1845 112.952 54.4236 106.703 53.9626 102.37C53.5015 98.0367 51.9567 95.4664 49.8008 93.5166C47.6449 91.5668 44.6652 90.8226 42.7258 90.9817C40.7863 91.1408 38.6764 91.2755 38.0405 90.9791C37.7013 90.8475 37.4095 90.732 37.1295 90.6211C35.7883 90.09 34.7191 89.6666 30.0134 88.1063Z" fill="url(#paint4_radial_9055_122146)" style=""/><path opacity="0.4" fill-rule="evenodd" clip-rule="evenodd" d="M53.874 111.798L30.8602 108.162L29.8369 115.795L35.2237 119.881C36.5415 120.881 38.1531 121.416 39.8072 121.404L48.8969 121.338L51.3699 118.779C51.7655 118.611 52.1829 118.492 52.6068 118.412C53.2188 116.24 53.6283 113.99 53.874 111.798Z" fill="url(#paint5_linear_9055_122146)" style=""/><path d="M58.6377 81.2577C58.928 83.9306 60.5515 85.3134 63.6554 84.9118C65.6441 84.6544 71.1662 83.2738 75.9312 82.0825C79.4358 81.2063 82.5309 80.4325 83.5098 80.2832" stroke="url(#paint6_linear_9055_122146)" style="" stroke-width="1.02643" stroke-linecap="round"/><path fill-rule="evenodd" clip-rule="evenodd" d="M67.8659 97.4555C68.1607 97.4434 68.4822 97.7214 68.4495 98.003C68.3108 99.1997 67.5353 100.173 66.9081 100.901C66.2939 101.613 65.7544 102.312 65.1823 102.461C64.6227 102.449 64.3768 102.168 64.3584 101.905C64.34 101.643 64.4506 101.351 64.7248 101.279C65.0238 101.201 65.5938 100.854 66.1307 100.231C66.6547 99.6229 67.136 98.8388 67.2461 97.8887C67.3424 97.5637 67.5711 97.4675 67.8659 97.4555Z" fill="#EC849B" style="fill:#EC849B;fill:color(display-p3 0.9247 0.5165 0.6059);fill-opacity:1;"/><path fill-rule="evenodd" clip-rule="evenodd" d="M56.5719 89.2194C56.3266 91.3697 56.1967 93.4955 56.2055 95.3514C56.2104 96.3721 56.2245 97.4778 56.2762 98.6176C56.6064 99.2926 57.0688 99.4577 57.4942 99.4797C58.2682 99.5196 60.892 99.4209 60.4086 95.9326C59.9252 92.4443 59.3477 90.5242 58.3089 89.7264C57.6212 89.1982 57.0103 89.0307 56.5719 89.2194Z" fill="#C7A3BC" style="fill:#C7A3BC;fill:color(display-p3 0.7804 0.6392 0.7373);fill-opacity:1;"/><path d="M61.3564 91.6625C60.9469 88.8234 62.4762 86.6205 65.5303 85.5425C68.5845 84.4646 69.7804 84.4722 69.7804 84.4722C70.0691 84.4044 70.3551 84.5707 70.4191 84.8436C70.4191 84.8436 71.2687 87.1608 71.6181 90.3064C71.7481 91.4769 71.8013 92.3764 71.8169 93.0446C71.8391 93.994 71.1167 94.7254 70.1999 94.9729C69.662 95.1182 69.0168 95.3213 68.316 95.6011C66.3805 96.3741 64.7082 97.342 64.7082 97.342C63.6773 97.8574 62.4403 97.0769 62.183 95.917C62.183 95.917 61.7658 94.5015 61.3564 91.6625Z" fill="#C7A3BC" style="fill:#C7A3BC;fill:color(display-p3 0.7804 0.6392 0.7373);fill-opacity:1;"/><path d="M65.4203 92.035C65.1213 90.9576 65.6942 89.6818 66.8333 89.3231C67.9723 88.9644 69.1865 89.597 69.5452 90.736L69.9306 91.96C70.2893 93.099 69.6567 94.3132 68.5176 94.6719C67.3786 95.0306 66.1644 94.398 65.8057 93.2589C65.8057 93.2589 65.7193 93.1123 65.4203 92.035Z" fill="#4C2E54" style="fill:#4C2E54;fill:color(display-p3 0.2980 0.1804 0.3294);fill-opacity:1;"/><path fill-rule="evenodd" clip-rule="evenodd" d="M59.9416 93.2179C59.4977 92.8537 58.9227 92.7283 58.369 92.9364C57.4142 93.2951 56.912 94.1002 57.1627 95.1775C57.4133 96.2549 57.4858 96.4015 57.4858 96.4015C57.7865 97.5405 58.8733 98.2643 59.8909 97.9181C60.0631 97.8595 60.2164 97.7862 60.3509 97.6993C60.4751 97.2374 60.5094 96.6576 60.4086 95.9306C60.2645 94.891 60.1121 93.9907 59.9416 93.2179Z" fill="#4C2E54" style="fill:#4C2E54;fill:color(display-p3 0.2980 0.1804 0.3294);fill-opacity:1;"/><path fill-rule="evenodd" clip-rule="evenodd" d="M71.7457 91.6609C67.2696 91.9774 64.118 93.7212 61.9824 95.1181C61.8227 94.422 61.5883 93.2706 61.3564 91.6625C60.9469 88.8234 62.4762 86.6205 65.5303 85.5425C68.5845 84.4646 69.7804 84.4722 69.7804 84.4722C70.0691 84.4044 70.3551 84.5707 70.4191 84.8436C70.4191 84.8436 71.2687 87.1608 71.6181 90.3064C71.6736 90.8063 71.7151 91.2568 71.7457 91.6609Z" fill="#A93D86" style="fill:#A93D86;fill:color(display-p3 0.6627 0.2392 0.5255);fill-opacity:1;"/><path fill-rule="evenodd" clip-rule="evenodd" d="M60.3614 95.5989C58.5992 96.0531 57.2108 96.6751 56.2329 97.3714C56.2153 96.6728 56.2086 95.9952 56.2055 95.3514C56.1967 93.4955 56.3266 91.3697 56.5719 89.2194C57.0103 89.0307 57.6212 89.1982 58.3089 89.7264C59.3141 90.4984 59.8873 92.3212 60.3614 95.5989Z" fill="#9E2B9E" style="fill:#9E2B9E;fill:color(display-p3 0.6196 0.1686 0.6196);fill-opacity:1;"/><path fill-rule="evenodd" clip-rule="evenodd" d="M53.7468 100.87C53.8335 101.345 53.9052 101.843 53.961 102.368C54.3483 106.008 54.2416 111 53.2261 115.869C52.3123 117.679 50.9504 118.509 49.4538 118.078C47.2081 117.432 46.7052 115.611 47.2831 111.53C46.7533 111.434 46.0362 111.307 45.1319 111.148C44.2433 115.054 40.6387 117.569 36.8446 116.825C32.882 116.047 30.2133 112.008 30.884 107.804L31.4823 104.052C31.8254 101.901 32.9758 100.124 34.5483 99.0045C34.1321 97.788 34.1719 96.4307 34.7039 95.2891C34.8668 94.9393 35.2909 94.8881 35.5413 95.1881L36.8166 96.7154C36.6288 95.8595 36.6868 94.9823 37.0812 94.1358C37.2545 93.764 37.6109 93.7639 37.9715 94.0285C38.332 94.293 39.2825 95.0036 41.0671 97.1169C42.8517 99.2301 47.8056 104.685 50.0282 100.468L50.0305 100.464C50.5733 99.0961 50.8043 97.7004 50.8386 97.459C50.988 96.4068 51.6358 96.7492 52.1498 97.3252C52.1775 97.3563 52.2074 97.3891 52.2393 97.4239L52.2393 97.424C52.5622 97.7773 53.0804 98.3445 53.4353 99.4884C53.5154 99.7829 53.5888 100.088 53.6553 100.404C53.6872 100.582 53.7153 100.771 53.7389 100.97C53.7416 100.936 53.7442 100.903 53.7468 100.87Z" fill="url(#paint7_linear_9055_122146)" style=""/><path fill-rule="evenodd" clip-rule="evenodd" d="M53.7468 100.87C53.8335 101.345 53.9052 101.843 53.961 102.368C54.3483 106.008 54.2416 111 53.2261 115.869C52.3123 117.679 50.9504 118.509 49.4538 118.078C47.2081 117.432 46.7052 115.611 47.2831 111.53C46.7533 111.434 46.0362 111.307 45.1319 111.148C44.2433 115.054 40.6387 117.569 36.8446 116.825C32.882 116.047 30.2133 112.008 30.884 107.804L31.4823 104.052C31.8254 101.901 32.9758 100.124 34.5483 99.0045C34.1321 97.788 34.1719 96.4307 34.7039 95.2891C34.8668 94.9393 35.2909 94.8881 35.5413 95.1881L36.8166 96.7154C36.6288 95.8595 36.6868 94.9823 37.0812 94.1358C37.2545 93.764 37.6109 93.7639 37.9715 94.0285C38.332 94.293 39.2825 95.0036 41.0671 97.1169C42.8517 99.2301 47.8056 104.685 50.0282 100.468L50.0305 100.464C50.5733 99.0961 50.8043 97.7004 50.8386 97.459C50.988 96.4068 51.6358 96.7492 52.1498 97.3252C52.1775 97.3563 52.2074 97.3891 52.2393 97.4239L52.2393 97.424C52.5622 97.7773 53.0804 98.3445 53.4353 99.4884C53.5154 99.7829 53.5888 100.088 53.6553 100.404C53.6872 100.582 53.7153 100.771 53.7389 100.97C53.7416 100.936 53.7442 100.903 53.7468 100.87Z" fill="url(#paint8_radial_9055_122146)" style=""/><rect x="48.0479" y="117.871" width="3.49806" height="4.67589" rx="1.74903" transform="rotate(-29.025 48.0479 117.871)" fill="#FFB388" style="fill:#FFB388;fill:color(display-p3 1.0000 0.7020 0.5333);fill-opacity:1;"/><rect x="44.8262" y="119.389" width="3.97694" height="5.9215" rx="1.98847" transform="rotate(-31.8259 44.8262 119.389)" fill="#FFB388" style="fill:#FFB388;fill:color(display-p3 1.0000 0.7020 0.5333);fill-opacity:1;"/><rect x="56.1494" y="120.381" width="3.1835" height="4.7401" rx="1.59175" transform="rotate(55.5726 56.1494 120.381)" fill="#FFB388" style="fill:#FFB388;fill:color(display-p3 1.0000 0.7020 0.5333);fill-opacity:1;"/><rect x="43.1846" y="119.949" width="3.27103" height="4.18641" rx="1.63552" transform="rotate(-5.06491 43.1846 119.949)" fill="#FFB388" style="fill:#FFB388;fill:color(display-p3 1.0000 0.7020 0.5333);fill-opacity:1;"/><path fill-rule="evenodd" clip-rule="evenodd" d="M43.5137 107.675C40.8177 106.151 36.3021 105.763 33.987 105.867C33.8233 106.68 33.7383 107.488 33.7018 108.208C33.5374 111.456 34.8972 113.33 37.481 113.817C40.0647 114.305 42.5545 112.605 43.0421 110.022L43.5137 107.675Z" fill="#CABAE5" style="fill:#CABAE5;fill:color(display-p3 0.7919 0.7277 0.8966);fill-opacity:1;"/><path fill-rule="evenodd" clip-rule="evenodd" d="M52.7923 110.35C51.6798 109.515 49.7654 108.978 48.4947 108.848C48.2108 110.237 47.8823 111.931 47.8041 112.69C47.6602 114.088 48.2293 115.053 49.4452 115.188C50.6612 115.323 51.7303 114.17 52.2648 112.546C52.4571 111.962 52.6386 111.15 52.7923 110.35Z" fill="#CABAE5" style="fill:#CABAE5;fill:color(display-p3 0.7919 0.7277 0.8966);fill-opacity:1;"/><path fill-rule="evenodd" clip-rule="evenodd" d="M35.9726 105.885C35.8255 106.135 35.7202 106.409 35.6676 106.696C35.4405 107.933 35.4558 108.124 35.4558 108.124C35.2588 109.453 36.1764 110.69 37.5056 110.888C38.8347 111.085 39.9227 110.15 40.1198 108.82L40.3315 107.392C40.3774 107.083 40.371 106.78 40.3175 106.494C38.8505 106.143 37.3007 105.956 35.9726 105.885Z" fill="#411C4F" style="fill:#411C4F;fill:color(display-p3 0.2549 0.1098 0.3098);fill-opacity:1;"/><path fill-rule="evenodd" clip-rule="evenodd" d="M48.8211 113.052C49.7386 113.239 50.6083 112.659 50.841 111.78C51.0737 110.902 51.1592 110.258 51.1592 110.258C51.2188 109.998 51.2193 109.741 51.1696 109.5C50.2545 109.151 49.2578 108.926 48.4939 108.848C48.2448 110.066 47.9614 111.52 47.8428 112.371C48.0495 112.712 48.3838 112.963 48.8211 113.052Z" fill="#411C4F" style="fill:#411C4F;fill:color(display-p3 0.2549 0.1098 0.3098);fill-opacity:1;"/><path opacity="0.3" fill-rule="evenodd" clip-rule="evenodd" d="M81.4739 101.336C81.3826 102.411 81.2929 103.462 81.2073 104.466C81.0269 106.581 80.8643 108.487 80.7408 109.976C75.752 111.269 68.9673 112.258 64.7647 112.047C61.66 111.954 59.6827 110.442 58.4229 108.247C61.4612 105.367 67.9914 102.811 75.771 101.781C77.737 101.521 79.6513 101.376 81.4739 101.336Z" fill="url(#paint9_radial_9055_122146)" style=""/><path fill-rule="evenodd" clip-rule="evenodd" d="M71.7527 93.5604C71.5575 94.2545 70.9424 94.7724 70.1999 94.9729C69.662 95.1182 69.0168 95.3213 68.316 95.6011C66.3805 96.3741 64.7082 97.342 64.7082 97.342C64.4242 97.484 64.1245 97.5276 63.8339 97.492C63.5411 96.0951 64.9655 94.3616 67.1821 93.4993C68.9603 92.8075 70.7417 92.8735 71.7527 93.5604Z" fill="url(#paint10_linear_9055_122146)" style=""/><path fill-rule="evenodd" clip-rule="evenodd" d="M69.9901 93.0227C69.8429 93.775 69.2994 94.4253 68.5168 94.6718C67.6457 94.9461 66.7307 94.6407 66.188 93.9723C66.4969 93.7958 66.8296 93.6365 67.1824 93.4993C68.1602 93.1189 69.139 92.9676 69.9901 93.0227Z" fill="#77058B" style="fill:#77058B;fill:color(display-p3 0.4667 0.0196 0.5451);fill-opacity:1;"/><path fill-rule="evenodd" clip-rule="evenodd" d="M60.4134 97.4127C59.8387 97.1381 59.1781 97.0879 58.564 97.3268C57.7015 97.6624 57.157 98.4801 57.0791 99.4004C57.2175 99.4489 57.3577 99.4707 57.4942 99.4777C58.1386 99.5109 60.0654 99.4481 60.4134 97.4127Z" fill="url(#paint11_linear_9055_122146)" style=""/><path fill-rule="evenodd" clip-rule="evenodd" d="M60.4135 97.413C59.8386 97.1382 59.1778 97.0878 58.5635 97.3268C58.4234 97.3813 58.2916 97.4486 58.1689 97.5269C58.6446 97.9484 59.2803 98.126 59.891 97.9182C60.0632 97.8596 60.2166 97.7863 60.351 97.6995C60.3754 97.6086 60.3964 97.5132 60.4135 97.413Z" fill="#6C0082" style="fill:#6C0082;fill:color(display-p3 0.4235 0.0000 0.5098);fill-opacity:1;"/><path d="M62.2221 99.417C62.0468 100.208 61.2715 100.709 60.4904 100.536C59.7093 100.363 59.2182 99.5811 59.3936 98.7901C59.5689 97.999 61.3309 96.4645 61.3899 96.4775C61.4488 96.4906 62.3974 98.6259 62.2221 99.417Z" fill="url(#paint12_radial_9055_122146)" style=""/><path fill-rule="evenodd" clip-rule="evenodd" d="M81.0862 105.88C80.7503 109.821 80.5017 112.777 80.5017 113.17C80.5017 114.266 81.1801 114.262 82.4456 114.254C82.5588 114.253 82.6766 114.252 82.7991 114.252C83.8022 114.252 84.9025 114.156 86.0571 113.983C86.2756 114.372 86.4983 114.77 86.7247 115.174C87.8781 117.232 89.1309 119.468 90.4496 121.748C94.4735 128.705 98.3846 135.786 99.6169 138.389L87.5376 141.364C87.5376 141.364 82.2051 125.393 80.5444 121.351C79.9536 119.913 79.2385 118.296 78.5341 116.703C77.2587 113.818 76.0183 111.012 75.6138 109.494C75.1628 107.712 78.661 105.378 81.0862 105.88Z" fill="#200C3C" style="fill:#200C3C;fill:color(display-p3 0.1255 0.0471 0.2353);fill-opacity:1;"/><path fill-rule="evenodd" clip-rule="evenodd" d="M81.0862 105.88C80.7503 109.821 80.5017 112.777 80.5017 113.17C80.5017 114.266 81.1801 114.262 82.4456 114.254C82.5588 114.253 82.6766 114.252 82.7991 114.252C83.8022 114.252 84.9025 114.156 86.0571 113.983C86.2756 114.372 86.4983 114.77 86.7247 115.174C87.8781 117.232 89.1309 119.468 90.4496 121.748C94.4735 128.705 98.3846 135.786 99.6169 138.389L87.5376 141.364C87.5376 141.364 82.2051 125.393 80.5444 121.351C79.9536 119.913 79.2385 118.296 78.5341 116.703C77.2587 113.818 76.0183 111.012 75.6138 109.494C75.1628 107.712 78.661 105.378 81.0862 105.88Z" fill="url(#paint13_radial_9055_122146)" style=""/><path d="M81.0811 113.274C81.0811 112.835 81.3909 109.202 81.786 104.57C82.25 99.1315 82.8315 92.3148 83.167 87.6699" stroke="url(#paint14_linear_9055_122146)" style="" stroke-width="1.12908" stroke-linecap="round"/><path d="M65.1191 101.954C65.9903 101.726 67.7327 100.243 67.9816 98.0957" stroke="#C03881" style="stroke:#C03881;stroke:color(display-p3 0.7529 0.2196 0.5059);stroke-opacity:1;" stroke-width="1.02643" stroke-linecap="round"/><path fill-rule="evenodd" clip-rule="evenodd" d="M34.2832 89.5547C34.9924 89.9336 35.6814 90.2989 36.3363 90.6331C40.1583 92.5836 43.9415 95.8124 44.8015 96.7939C45.1311 95.655 46.7169 93.6968 50.4781 94.1729C50.2598 93.9461 50.0338 93.7279 49.8006 93.517C47.6448 91.5673 44.665 90.823 42.7256 90.9821C40.7862 91.1412 38.6763 91.2759 38.0404 90.9795C37.7011 90.848 37.4093 90.7324 37.1294 90.6215C36.3468 90.3117 35.6569 90.0384 34.2832 89.5547Z" fill="url(#paint15_radial_9055_122146)" style=""/><path fill-rule="evenodd" clip-rule="evenodd" d="M42.7268 111.045C42.1221 109.721 40.5006 108.687 38.5204 108.52C36.4724 108.346 34.6467 109.149 33.8682 110.426C34.3107 112.322 35.556 113.454 37.4803 113.817C39.7046 114.237 41.8592 113.036 42.7268 111.045Z" fill="#FFE5EE" style="fill:#FFE5EE;fill:color(display-p3 1.0000 0.8962 0.9320);fill-opacity:1;"/><path fill-rule="evenodd" clip-rule="evenodd" d="M52.0042 113.212C51.6094 112.545 50.965 112.01 50.1517 111.752C49.3883 111.51 48.6057 111.554 47.9283 111.824C47.8706 112.171 47.8268 112.47 47.8041 112.691C47.6602 114.089 48.2293 115.054 49.4452 115.189C50.4876 115.305 51.422 114.474 52.0042 113.212Z" fill="#FFE5EE" style="fill:#FFE5EE;fill:color(display-p3 1.0000 0.8962 0.9320);fill-opacity:1;"/><path fill-rule="evenodd" clip-rule="evenodd" d="M50.7621 112.014C50.4495 112.759 49.655 113.223 48.8211 113.053C48.3838 112.964 48.0495 112.712 47.8428 112.372C47.8654 112.209 47.8941 112.024 47.9274 111.823C48.6049 111.554 49.3874 111.51 50.1507 111.752C50.3669 111.82 50.5712 111.909 50.7621 112.014Z" fill="#6C0082" style="fill:#6C0082;fill:color(display-p3 0.4235 0.0000 0.5098);fill-opacity:1;"/><path fill-rule="evenodd" clip-rule="evenodd" d="M40.1135 108.861C39.6222 108.686 39.0865 108.567 38.5216 108.52C37.3999 108.425 36.345 108.623 35.4922 109.031C35.7119 109.975 36.4883 110.736 37.5058 110.887C38.821 111.082 39.9001 110.168 40.1135 108.861Z" fill="#6C0082" style="fill:#6C0082;fill:color(display-p3 0.4235 0.0000 0.5098);fill-opacity:1;"/><path d="M46.4921 110.726C47.5782 111.065 48.5103 111.953 48.1972 112.954L48.0042 113.571C47.6911 114.572 46.3107 115.223 45.1775 114.91C44.0442 114.597 43.6019 113.625 43.7892 112.474C43.9717 111.351 44.91 110.231 46.4921 110.726Z" fill="#D15918" style="fill:#D15918;fill:color(display-p3 0.8196 0.3474 0.0951);fill-opacity:1;"/><path d="M49.0418 113.211C49.0361 113.293 49.033 113.42 48.9133 113.521C48.7935 113.623 48.6087 113.65 48.4175 113.584L43.754 111.975C43.6622 111.951 43.6746 111.849 43.7103 111.754C44.2783 110.524 45.85 109.974 47.0205 110.273C48.1614 110.565 49.1526 111.596 49.0418 113.211Z" fill="url(#paint16_linear_9055_122146)" style=""/><path fill-rule="evenodd" clip-rule="evenodd" d="M46.7405 111.596C46.615 111.569 46.4955 111.554 46.3992 111.551C46.3588 111.549 46.325 111.549 46.2987 111.551C46.2857 111.552 46.2754 111.553 46.2678 111.553C46.264 111.554 46.2611 111.554 46.2591 111.555C46.257 111.555 46.2561 111.555 46.2561 111.555C45.9737 111.611 45.6991 111.428 45.6428 111.145C45.5865 110.863 45.7699 110.588 46.0524 110.532C46.1732 110.508 46.3102 110.503 46.4397 110.508C46.5986 110.515 46.7792 110.537 46.9635 110.577C47.1065 110.608 47.2565 110.652 47.4038 110.71C47.5218 110.756 47.6413 110.814 47.7553 110.885C48 111.037 48.0751 111.358 47.9231 111.603C47.7711 111.848 47.4495 111.923 47.2049 111.771C47.1526 111.738 47.0907 111.708 47.0204 111.68C46.9327 111.645 46.8373 111.617 46.7405 111.596Z" fill="url(#paint17_radial_9055_122146)" style=""/><path fill-rule="evenodd" clip-rule="evenodd" d="M53.8091 128.244C53.7908 128.26 53.7722 128.277 53.7536 128.293C51.5883 130.2 47.5892 133.722 38.9492 134.636C33.001 135.265 28.5443 134.488 25.6339 133.474C25.0709 133.278 24.5896 133.955 25.0818 134.292C26.8537 135.502 29.3564 136.762 32.5908 137.61C34.4248 138.091 36.8834 138.56 39.371 138.975C39.7496 138.718 40.1163 138.453 40.4717 138.18C47.4458 137.072 51.5828 132.075 53.3641 129.081C53.5217 128.816 53.6706 128.536 53.8091 128.244Z" fill="url(#paint18_radial_9055_122146)" style=""/><path fill-rule="evenodd" clip-rule="evenodd" d="M87.7295 116.967C88.594 118.505 89.5045 120.115 90.4489 121.748C93.8356 127.603 97.1425 133.547 98.8395 136.834L94.0334 139.197L87.7295 116.967Z" fill="url(#paint19_radial_9055_122146)" style=""/></g><defs><radialGradient id="paint0_radial_9055_122146" cx="0" cy="0" r="1" gradientUnits="userSpaceOnUse" gradientTransform="translate(80.5431 113.351) rotate(-108.353) scale(57.1533 56.212)"><stop offset="0.254118" stop-color="#821AD9" style="stop-color:#821AD9;stop-color:color(display-p3 0.5099 0.1009 0.8525);stop-opacity:1;"/><stop offset="0.649425" stop-color="#6818A4" style="stop-color:#6818A4;stop-color:color(display-p3 0.4078 0.0941 0.6431);stop-opacity:1;"/><stop offset="0.979355" stop-color="#291643" style="stop-color:#291643;stop-color:color(display-p3 0.1608 0.0863 0.2627);stop-opacity:1;"/></radialGradient><linearGradient id="paint1_linear_9055_122146" x1="77.176" y1="112.361" x2="56.3225" y2="115.282" gradientUnits="userSpaceOnUse"><stop stop-color="#2B1746" style="stop-color:#2B1746;stop-color:color(display-p3 0.1686 0.0902 0.2745);stop-opacity:1;"/><stop offset="1" stop-color="#2B1746" stop-opacity="0" style="stop-color:none;stop-opacity:0;"/></linearGradient><linearGradient id="paint2_linear_9055_122146" x1="68.2815" y1="104.382" x2="61.5249" y2="85.6455" gradientUnits="userSpaceOnUse"><stop offset="0.401113" stop-color="#FEB387" style="stop-color:#FEB387;stop-color:color(display-p3 0.9961 0.7020 0.5294);stop-opacity:1;"/><stop offset="0.693581" stop-color="#EC8D6B" style="stop-color:#EC8D6B;stop-color:color(display-p3 0.9255 0.5529 0.4196);stop-opacity:1;"/></linearGradient><radialGradient id="paint3_radial_9055_122146" cx="0" cy="0" r="1" gradientUnits="userSpaceOnUse" gradientTransform="translate(39.5973 96.905) rotate(72.9725) scale(47.2508 46.8095)"><stop offset="0.377724" stop-color="#7B9200" style="stop-color:#7B9200;stop-color:color(display-p3 0.4824 0.5725 0.0000);stop-opacity:1;"/><stop offset="0.63023" stop-color="#688A03" style="stop-color:#688A03;stop-color:color(display-p3 0.4078 0.5412 0.0118);stop-opacity:1;"/><stop offset="0.908796" stop-color="#587202" style="stop-color:#587202;stop-color:color(display-p3 0.3451 0.4471 0.0078);stop-opacity:1;"/></radialGradient><radialGradient id="paint4_radial_9055_122146" cx="0" cy="0" r="1" gradientUnits="userSpaceOnUse" gradientTransform="translate(41.4943 100.25) rotate(105.49) scale(44.0531 35.8631)"><stop offset="0.275319" stop-color="#679C1C" style="stop-color:#679C1C;stop-color:color(display-p3 0.4039 0.6118 0.1098);stop-opacity:1;"/><stop offset="0.735301" stop-color="#78C93C" stop-opacity="0" style="stop-color:none;stop-opacity:0;"/></radialGradient><linearGradient id="paint5_linear_9055_122146" x1="42.0698" y1="121.133" x2="38.2123" y2="113.436" gradientUnits="userSpaceOnUse"><stop stop-color="#2A3E07" style="stop-color:#2A3E07;stop-color:color(display-p3 0.1647 0.2431 0.0275);stop-opacity:1;"/><stop offset="1" stop-color="#2A3E07" stop-opacity="0" style="stop-color:none;stop-opacity:0;"/></linearGradient><linearGradient id="paint6_linear_9055_122146" x1="59.1356" y1="83.3549" x2="82.6518" y2="81.2901" gradientUnits="userSpaceOnUse"><stop offset="0.211386" stop-color="#792885" style="stop-color:#792885;stop-color:color(display-p3 0.4745 0.1569 0.5216);stop-opacity:1;"/><stop offset="1" stop-color="#792885" stop-opacity="0" style="stop-color:none;stop-opacity:0;"/></linearGradient><linearGradient id="paint7_linear_9055_122146" x1="45.6194" y1="94.2308" x2="47.3566" y2="119.899" gradientUnits="userSpaceOnUse"><stop offset="0.248716" stop-color="#9DD741" style="stop-color:#9DD741;stop-color:color(display-p3 0.6157 0.8431 0.2549);stop-opacity:1;"/><stop offset="0.884072" stop-color="#6C980D" style="stop-color:#6C980D;stop-color:color(display-p3 0.4216 0.5951 0.0528);stop-opacity:1;"/></linearGradient><radialGradient id="paint8_radial_9055_122146" cx="0" cy="0" r="1" gradientUnits="userSpaceOnUse" gradientTransform="translate(48.7757 95.9777) rotate(-73.6768) scale(9.91814 16.4473)"><stop offset="0.0256146" stop-color="#85BD3F" style="stop-color:#85BD3F;stop-color:color(display-p3 0.5229 0.7404 0.2462);stop-opacity:1;"/><stop offset="1" stop-color="#9EE04A" stop-opacity="0" style="stop-color:none;stop-opacity:0;"/></radialGradient><radialGradient id="paint9_radial_9055_122146" cx="0" cy="0" r="1" gradientUnits="userSpaceOnUse" gradientTransform="translate(76.7778 109.386) rotate(79.6903) scale(7.87193 20.8641)"><stop stop-color="#CB3BBB" style="stop-color:#CB3BBB;stop-color:color(display-p3 0.7961 0.2314 0.7333);stop-opacity:1;"/><stop offset="0.660943" stop-color="#EA789A" style="stop-color:#EA789A;stop-color:color(display-p3 0.9176 0.4706 0.6039);stop-opacity:1;"/><stop offset="1" stop-color="#EA779A" stop-opacity="0" style="stop-color:none;stop-opacity:0;"/></radialGradient><linearGradient id="paint10_linear_9055_122146" x1="70.3634" y1="92.6903" x2="67.774" y2="97.5037" gradientUnits="userSpaceOnUse"><stop stop-color="#F8B1DD" style="stop-color:#F8B1DD;stop-color:color(display-p3 0.9725 0.6941 0.8667);stop-opacity:1;"/><stop offset="1" stop-color="#F1D5DE" style="stop-color:#F1D5DE;stop-color:color(display-p3 0.9451 0.8353 0.8706);stop-opacity:1;"/></linearGradient><linearGradient id="paint11_linear_9055_122146" x1="59.6446" y1="97.1377" x2="58.7468" y2="99.4832" gradientUnits="userSpaceOnUse"><stop stop-color="#F8B1DD" style="stop-color:#F8B1DD;stop-color:color(display-p3 0.9725 0.6941 0.8667);stop-opacity:1;"/><stop offset="1" stop-color="#F1D5DE" style="stop-color:#F1D5DE;stop-color:color(display-p3 0.9451 0.8353 0.8706);stop-opacity:1;"/></linearGradient><radialGradient id="paint12_radial_9055_122146" cx="0" cy="0" r="1" gradientUnits="userSpaceOnUse" gradientTransform="translate(61.4378 97.3429) rotate(102.995) scale(4.05279 4.75854)"><stop offset="0.469095" stop-color="#C03881" style="stop-color:#C03881;stop-color:color(display-p3 0.7529 0.2196 0.5059);stop-opacity:1;"/><stop offset="0.885959" stop-color="#F62AED" style="stop-color:#F62AED;stop-color:color(display-p3 0.9647 0.1647 0.9294);stop-opacity:1;"/></radialGradient><radialGradient id="paint13_radial_9055_122146" cx="0" cy="0" r="1" gradientUnits="userSpaceOnUse" gradientTransform="translate(91.6245 126.814) rotate(62.193) scale(20.2612 7.68999)"><stop stop-color="#4F0E68" style="stop-color:#4F0E68;stop-color:color(display-p3 0.3098 0.0549 0.4078);stop-opacity:1;"/><stop offset="1" stop-color="#4F0E68" stop-opacity="0" style="stop-color:none;stop-opacity:0;"/></radialGradient><linearGradient id="paint14_linear_9055_122146" x1="82.3037" y1="100.072" x2="84.2705" y2="87.9137" gradientUnits="userSpaceOnUse"><stop stop-color="#9542CD" style="stop-color:#9542CD;stop-color:color(display-p3 0.5856 0.2575 0.8057);stop-opacity:1;"/><stop offset="1" stop-color="#9542CD" stop-opacity="0" style="stop-color:none;stop-opacity:0;"/></linearGradient><radialGradient id="paint15_radial_9055_122146" cx="0" cy="0" r="1" gradientUnits="userSpaceOnUse" gradientTransform="translate(35.7127 88.3362) rotate(120.43) scale(7.43477 24.3964)"><stop stop-color="#44FFC7" style="stop-color:#44FFC7;stop-color:color(display-p3 0.2685 1.0000 0.7805);stop-opacity:1;"/><stop offset="0.673967" stop-color="#90E48C" stop-opacity="0" style="stop-color:none;stop-opacity:0;"/></radialGradient><linearGradient id="paint16_linear_9055_122146" x1="48.0309" y1="110.842" x2="44.9121" y2="114.848" gradientUnits="userSpaceOnUse"><stop stop-color="#FFC200" style="stop-color:#FFC200;stop-color:color(display-p3 1.0000 0.7608 0.0000);stop-opacity:1;"/><stop offset="1" stop-color="#C96B00" style="stop-color:#C96B00;stop-color:color(display-p3 0.7882 0.4196 0.0000);stop-opacity:1;"/></linearGradient><radialGradient id="paint17_radial_9055_122146" cx="0" cy="0" r="1" gradientUnits="userSpaceOnUse" gradientTransform="translate(47.0354 110.875) rotate(106.22) scale(0.731831 1.53018)"><stop stop-color="#FFDE00" style="stop-color:#FFDE00;stop-color:color(display-p3 1.0000 0.8696 0.0000);stop-opacity:1;"/><stop offset="1" stop-color="#FFDE00" stop-opacity="0" style="stop-color:none;stop-opacity:0;"/></radialGradient><radialGradient id="paint18_radial_9055_122146" cx="0" cy="0" r="1" gradientUnits="userSpaceOnUse" gradientTransform="translate(41.439 126.406) rotate(82.9186) scale(11.8135 24.0844)"><stop offset="0.674999" stop-color="#FF9600" stop-opacity="0" style="stop-color:none;stop-opacity:0;"/><stop offset="1" stop-color="#FF9600" stop-opacity="0.67" style="stop-color:#FF9600;stop-color:color(display-p3 1.0000 0.5882 0.0000);stop-opacity:0.67;"/></radialGradient><radialGradient id="paint19_radial_9055_122146" cx="0" cy="0" r="1" gradientUnits="userSpaceOnUse" gradientTransform="translate(95.5881 128.68) rotate(73.2334) scale(14.8999 3.7019)"><stop stop-color="#2F5B8E" stop-opacity="0" style="stop-color:none;stop-opacity:0;"/><stop offset="0.9999" stop-color="#FF9600" stop-opacity="0.14" style="stop-color:#FF9600;stop-color:color(display-p3 1.0000 0.5882 0.0000);stop-opacity:0.14;"/></radialGradient><clipPath id="clip0_9055_122146"><rect width="149" height="137" fill="white" style="fill:white;fill-opacity:1;" transform="translate(-7)"/></clipPath></defs></svg>