<svg width="450" height="450" viewBox="0 0 450 450" fill="none" xmlns="http://www.w3.org/2000/svg">
<path d="M441.869 293.757L339.687 184.239C334.21 178.369 324.638 179.553 320.784 186.577C302.267 220.325 307.508 262.953 334.504 291.887C361.5 320.822 403.538 328.866 438.305 312.535C445.541 309.136 447.346 299.628 441.869 293.757Z" fill="#58CC02"/>
<path d="M233.863 212.717L164.506 157.923L140.918 173.322C140.918 173.322 138.068 191.872 139.869 202.619C145.297 235.01 197.043 264.293 197.043 264.293L233.863 212.717Z" fill="#58CC02"/>
<path d="M40.9788 87.6565C41.5115 85.5549 43.6471 84.2831 45.7487 84.8158L48.0514 85.3995C59.8439 88.3887 66.9803 100.372 63.9912 112.164L63.735 113.174C63.2023 115.276 61.0667 116.548 58.9651 116.015L56.6624 115.432C44.87 112.442 37.7335 100.459 40.7227 88.6669L40.9788 87.6565Z" fill="#FFD600"/>
<path d="M246.009 83.2582C245.317 81.2036 243.09 80.0991 241.036 80.7913L238.784 81.5497C227.256 85.4336 221.058 97.9281 224.942 109.457L225.275 110.445C225.967 112.499 228.194 113.604 230.248 112.912L232.5 112.153C244.028 108.269 250.226 95.7748 246.342 84.246L246.009 83.2582Z" fill="#FFB800"/>
<path d="M38.0052 130.838C37.1361 128.852 38.0419 126.537 40.0282 125.668L42.2045 124.716C53.3499 119.84 66.338 124.922 71.2143 136.067L71.6321 137.022C72.5011 139.009 71.5954 141.323 69.6091 142.192L67.4328 143.145C56.2873 148.021 43.2992 142.939 38.423 131.793L38.0052 130.838Z" fill="#FFD600"/>
<path d="M252.598 127.432C253.404 125.419 252.425 123.134 250.412 122.329L248.207 121.446C236.912 116.926 224.092 122.418 219.572 133.712L219.184 134.68C218.379 136.693 219.357 138.978 221.37 139.783L223.576 140.666C234.87 145.186 247.691 139.694 252.211 128.4L252.598 127.432Z" fill="#FFB800"/>
<path d="M56.959 170.492C54.9214 169.752 53.87 167.499 54.6107 165.462L55.4223 163.229C59.5786 151.796 72.2165 145.896 83.65 150.053L84.6296 150.409C86.6673 151.149 87.7186 153.402 86.9779 155.439L86.1663 157.672C82.0101 169.105 69.3721 175.005 57.9387 170.848L56.959 170.492Z" fill="#FFD600"/>
<path d="M233.603 167.687C235.616 166.882 236.595 164.597 235.79 162.584L234.908 160.379C230.391 149.083 217.573 143.587 206.277 148.104L205.309 148.491C203.296 149.296 202.317 151.581 203.122 153.594L204.004 155.8C208.521 167.096 221.339 172.591 232.635 168.074L233.603 167.687Z" fill="#FFB800"/>
<path d="M72.2588 50.4126C71.988 33.3509 89.8801 21.8735 105.714 28.2341C120.479 34.1653 136.27 39.5597 144.591 39.4276C152.912 39.2955 168.524 33.4028 183.093 27.0061C198.717 20.1462 216.965 31.05 217.236 48.1118L217.986 95.3772C218.621 135.411 186.682 168.381 146.648 169.016C106.613 169.651 73.6443 137.712 73.0089 97.678L72.2588 50.4126Z" fill="#FFB800"/>
<path fill-rule="evenodd" clip-rule="evenodd" d="M217.098 45.8742L217.297 58.3964C217.998 102.561 182.764 138.932 138.599 139.633C112.365 140.049 88.8809 127.786 73.9894 108.503C73.4034 104.976 73.0713 101.362 73.0128 97.679L72.2627 50.4136C71.9919 33.3518 89.884 21.8745 105.718 28.2351C120.483 34.1663 136.274 39.5606 144.595 39.4286C152.916 39.2965 168.527 33.4038 183.097 27.007C198.027 20.4522 215.351 30.1164 217.098 45.8742Z" fill="#FFD600"/>
<path d="M111.246 48.7667C111.372 56.677 105.061 63.1914 97.1506 63.3169C89.2402 63.4424 82.7259 57.1316 82.6004 49.2213C82.4748 41.311 88.7856 34.7967 96.6959 34.6711C104.606 34.5456 111.121 40.8564 111.246 48.7667Z" fill="#FFF500"/>
<path fill-rule="evenodd" clip-rule="evenodd" d="M148.156 54.9248C147.148 49.7331 150.539 44.707 155.731 43.6987C165.856 41.7322 171.127 39.5343 178.689 35.1967C183.277 32.5653 189.129 34.1512 191.76 38.7388C194.392 43.3264 192.806 49.1785 188.218 51.8099C178.968 57.1157 171.724 60.1024 159.382 62.4994C154.191 63.5078 149.165 60.1165 148.156 54.9248Z" fill="#FFF500"/>
<path d="M138.186 160.756L153.6 160.511L154.128 193.777L138.713 194.022L138.186 160.756Z" fill="#FFB800"/>
<path d="M127.757 183.375C136.802 182.583 138.578 177.492 138.401 174.904L150.112 184.74L131.738 193.212C126.571 189.817 118.942 184.147 127.757 183.375Z" fill="#FFB800"/>
<path d="M127.438 166.575C136.277 168.651 138.394 172.299 138.436 174.939L149.803 164.72L131.212 159.459C126.155 163.016 119.484 164.708 127.438 166.575Z" fill="#FFB800"/>
<path d="M164.482 166.51C155.714 168.865 153.714 172.578 153.756 175.218L142.069 165.365L160.443 156.893C165.61 160.288 172.373 164.39 164.482 166.51Z" fill="#FFD600"/>
<path d="M164.482 166.51C155.714 168.865 153.714 172.578 153.756 175.218L142.069 165.365L160.443 156.893C165.61 160.288 172.373 164.39 164.482 166.51Z" fill="#FFB800"/>
<path d="M164.908 182.401C155.873 181.498 153.564 176.991 153.659 174.399L142.528 184.597L161.162 192.482C166.218 188.925 174.019 183.312 164.908 182.401Z" fill="#FFB800"/>
<path fill-rule="evenodd" clip-rule="evenodd" d="M60.7919 109.499C62.4187 109.425 63.7974 110.685 63.8711 112.311C64.066 116.609 65.3845 123.849 68.7388 131.191C72.086 138.518 77.3667 145.749 85.3643 150.37C86.7744 151.184 87.2572 152.988 86.4425 154.398C85.6279 155.808 83.8243 156.291 82.4142 155.476C73.0544 150.069 67.0644 141.718 63.3746 133.642C59.692 125.581 58.2072 117.595 57.9798 112.579C57.906 110.952 59.165 109.573 60.7919 109.499Z" fill="#FFD600"/>
<path fill-rule="evenodd" clip-rule="evenodd" d="M228.364 106.842C226.736 106.82 225.398 108.122 225.376 109.75C225.318 114.052 224.229 121.33 221.11 128.775C217.997 136.204 212.948 143.6 205.101 148.471C203.718 149.33 203.292 151.148 204.151 152.532C205.01 153.916 206.828 154.341 208.212 153.482C217.395 147.78 223.117 139.244 226.549 131.054C229.974 122.88 231.205 114.852 231.273 109.831C231.295 108.202 229.993 106.864 228.364 106.842Z" fill="#FFB800"/>
<path d="M193.837 193.763C193.868 200.479 174.201 206.014 149.909 206.126C125.617 206.238 105.9 200.885 105.869 194.169C105.838 187.453 125.505 181.918 149.797 181.806C174.088 181.694 193.806 187.047 193.837 193.763Z" fill="#FFB800"/>
<path d="M94.541 202.429L205.235 201.918L205.292 214.238L94.5979 214.749L94.541 202.429Z" fill="#FFD600"/>
<path d="M205.242 202.125C205.276 209.536 180.524 215.659 149.957 215.8C119.39 215.941 94.5825 210.047 94.5483 202.635C94.5141 195.224 119.266 189.101 149.833 188.96C180.401 188.819 205.208 194.713 205.242 202.125Z" fill="#FFD600"/>
<path d="M205.297 215.338C205.331 222.75 180.579 228.873 150.012 229.014C119.445 229.155 94.6371 223.261 94.6029 215.849C94.5687 208.438 119.321 202.315 149.888 202.174C180.455 202.033 205.263 207.927 205.297 215.338Z" fill="#FFB800"/>
<path fill-rule="evenodd" clip-rule="evenodd" d="M121.453 203.562C122.309 203.438 122.933 202.683 122.882 201.82L122.387 193.416C122.33 192.454 121.465 191.744 120.513 191.889C116.084 192.562 112.112 193.398 108.742 194.36C108.011 194.568 107.532 195.262 107.577 196.021L108.062 204.264C108.125 205.326 109.161 206.053 110.19 205.783C113.478 204.919 117.271 204.169 121.453 203.562Z" fill="#FFF500"/>
<path fill-rule="evenodd" clip-rule="evenodd" d="M128.788 200.884C128.844 201.825 129.675 202.529 130.614 202.438C132.657 202.241 134.764 202.075 136.926 201.944C137.84 201.888 138.542 201.105 138.488 200.19L137.986 191.661C137.932 190.753 137.154 190.058 136.246 190.117C134.019 190.26 131.852 190.439 129.755 190.651C128.88 190.74 128.236 191.505 128.288 192.382L128.788 200.884Z" fill="#FFF500"/>
<path d="M302.413 159.559C297.044 155.311 283.555 146.457 260.598 143.48C232.149 139.792 204.451 163.604 202.121 181.57C197.732 215.425 190.108 269.721 189.668 273.115C189.118 277.357 183.574 363.162 275.155 375.037C348.419 384.537 376.451 323.723 381.309 292.128C385.472 260.021 394.219 197.091 395.902 184.115C398.005 167.895 386.786 150.708 366.074 148.023C349.505 145.874 316.73 154.819 302.413 159.559Z" fill="#58CC02"/>
<path fill-rule="evenodd" clip-rule="evenodd" d="M200.525 193.845L207.473 197.998L205.678 235.318L221.18 247.858L247.49 244.546L249.535 237.579L252.739 212.875L266.979 207.744L314.847 206.465C319.685 210.261 324.132 197.361 327.518 187.539C327.973 186.219 328.409 184.953 328.824 183.792C333.203 171.546 331.343 165.342 329.396 164.709C327.837 164.203 315.776 170.598 309.94 173.858C319.969 159.854 319.341 158.38 318.673 156.809C318.66 156.778 318.646 156.747 318.633 156.717C316.706 156.054 305.994 161.454 293.055 167.976C274.189 177.485 250.592 189.38 242.598 188.343C229.123 186.596 236.536 162.691 238.6 158.518C240.663 154.345 239.783 152.328 236.04 151.843C231.947 151.312 223.949 156.703 220.462 159.465L218.192 156.999C209.242 164.379 203.156 173.557 202.116 181.571C201.622 185.384 201.087 189.514 200.525 193.845Z" fill="#89E219"/>
<path fill-rule="evenodd" clip-rule="evenodd" d="M250.655 188.118C245.824 194.653 242.54 202.473 241.421 211.103L239.564 225.424C236.056 252.478 255.144 277.254 282.198 280.762C309.253 284.27 334.028 265.182 337.536 238.128L339.393 223.807C341.881 204.618 333.002 186.576 317.976 176.455L315.375 196.511L250.655 188.118Z" fill="#89E219"/>
<path fill-rule="evenodd" clip-rule="evenodd" d="M202.198 180.954L193.236 250.069C192.173 258.269 197.958 265.778 206.158 266.841C214.358 267.905 221.867 262.119 222.93 253.919L233.118 175.352C233.921 169.161 230.819 163.364 225.722 160.438L222.717 183.614L202.198 180.954Z" fill="#89E219"/>
<path d="M256.799 215.81C259.123 197.894 275.53 185.253 293.446 187.576V187.576C311.362 189.9 324.003 206.307 321.68 224.223L319.739 239.195C317.415 257.112 301.008 269.752 283.092 267.429V267.429C265.176 265.106 252.535 248.699 254.858 230.783L256.799 215.81Z" fill="white"/>
<path d="M270.535 217.894C271.606 209.633 279.172 203.804 287.433 204.875V204.875C295.694 205.946 301.523 213.512 300.452 221.773L298.504 236.791C297.433 245.052 289.868 250.881 281.606 249.81V249.81C273.345 248.739 267.516 241.173 268.588 232.912L270.535 217.894Z" fill="#535353"/>
<path d="M203.365 195.44C204.742 184.825 210.438 176.813 216.089 177.546C221.739 178.279 225.204 187.478 223.827 198.093L218.717 237.508C217.34 248.124 211.644 256.135 205.993 255.403C200.343 254.67 196.878 245.47 198.254 234.855L203.365 195.44Z" fill="white"/>
<path d="M221.446 249.389C222.728 242.855 228.862 238.438 235.465 239.294V239.294C242.384 240.191 247.265 246.527 246.368 253.445L244.388 268.71C243.456 275.901 236.87 280.975 229.679 280.042V280.042C222.156 279.067 217.022 271.938 218.483 264.494L221.446 249.389Z" fill="#F49000"/>
<path opacity="0.61" d="M224.064 246.056C224.934 241.537 229.17 238.476 233.734 239.067V239.067C238.711 239.713 242.114 244.421 241.165 249.349L237.552 268.108C236.682 272.627 232.446 275.688 227.882 275.097V275.097C222.905 274.451 219.502 269.743 220.451 264.815L224.064 246.056Z" fill="#8E4D00"/>
<path fill-rule="evenodd" clip-rule="evenodd" d="M223.783 198.46L218.72 237.508C218.6 238.427 218.449 239.326 218.268 240.201C216.869 241.019 215.294 241.392 213.685 241.184C209.105 240.59 205.989 235.507 206.725 229.83L209.886 205.453C210.622 199.776 214.931 195.655 219.511 196.249C221.163 196.463 222.624 197.261 223.783 198.46Z" fill="#535353"/>
<path d="M222.393 248.55C216.2 232.168 205.006 227.98 196.539 229.517L198.493 249.647L208.916 262.705C210.316 262.621 219.578 255.797 222.393 248.55Z" fill="#89E219"/>
<path d="M283.409 210.456C282.792 215.21 278.438 218.565 273.683 217.948C268.928 217.332 265.574 212.978 266.19 208.223C266.807 203.468 271.161 200.114 275.916 200.73C280.67 201.347 284.025 205.701 283.409 210.456Z" fill="white"/>
<path d="M216.806 201.363C216.231 205.804 213.494 209.109 210.695 208.746C207.895 208.383 206.093 204.489 206.668 200.048C207.244 195.608 209.98 192.302 212.78 192.665C215.58 193.028 217.382 196.922 216.806 201.363Z" fill="white"/>
<path fill-rule="evenodd" clip-rule="evenodd" d="M239.225 259.468L237.561 268.11C236.691 272.629 232.455 275.691 227.891 275.099C224.747 274.691 222.231 272.662 221.043 269.98C222.602 262.847 229.39 257.971 236.766 258.927C237.615 259.037 238.437 259.22 239.225 259.468Z" fill="#FEB7FF"/>
<path d="M214.784 247.042C215.887 241.128 224.685 233.966 234.282 235.211C244.871 236.584 248.159 246.546 248.48 251.859L218.557 251.681C217.732 251.125 216.22 249.112 214.784 247.042Z" fill="#FFC200"/>
<path d="M124.526 177.969L120.899 170.521C119.881 168.43 121.509 166.021 123.829 166.187L143.692 167.608C148.535 167.955 151.009 173.584 147.991 177.387L145.691 180.284C139.934 187.536 128.579 186.294 124.526 177.969Z" fill="#58CC02"/>
<path d="M260.107 256.881C276.051 240.499 300.168 235.969 321.968 237.506L316.936 257.636L288.381 272.416C284.775 272.332 267.354 264.128 260.107 256.881Z" fill="#89E219"/>
<path fill-rule="evenodd" clip-rule="evenodd" d="M229.408 242.202C229.398 242.206 229.394 242.207 229.394 242.207C227.939 242.836 226.25 242.166 225.621 240.711C224.992 239.256 225.662 237.566 227.117 236.938C228.221 236.461 229.825 236.195 231.372 236.14C232.97 236.082 234.908 236.232 236.688 236.871C238.18 237.407 238.955 239.051 238.419 240.543C237.884 242.034 236.24 242.81 234.748 242.274C233.88 241.962 232.729 241.835 231.579 241.876C231.022 241.896 230.514 241.954 230.103 242.029C229.899 242.066 229.73 242.105 229.601 242.141C229.537 242.158 229.487 242.174 229.45 242.187C229.431 242.193 229.418 242.198 229.408 242.202Z" fill="#FFDE00"/>
<path d="M263.471 311.129L237.394 307.748C236.583 307.643 235.148 307.457 234.849 309.765C234.55 312.073 239.547 321.475 249.03 322.705C258.512 323.934 265.14 316.357 265.48 313.737C265.752 311.641 264.254 311.125 263.471 311.129Z" fill="#89E219"/>
<path d="M241.919 329.33C238.768 328.922 223.757 324.343 220.919 323.975C219.546 323.797 219.037 324.302 218.871 325.581C218.705 326.859 222.076 337.065 231.527 338.291C239.088 339.271 242.658 335.04 243.498 332.802C243.579 332.178 245.069 329.739 241.919 329.33Z" fill="#89E219"/>
<path d="M220.334 302.872C214.033 302.055 208.817 297.762 205.885 297.382C204.387 297.188 203.537 298.346 203.637 300.263C203.74 302.21 206.712 312.523 213.575 313.413C220.437 314.303 223.283 308.012 223.42 306.951C223.558 305.89 223.702 303.308 220.334 302.872Z" fill="#89E219"/>
<path d="M383.524 52.9557C377.672 50.2015 371.261 44.4924 369.54 41.767C368.851 47.6195 375.492 56.2549 378.145 60.0562C379.365 58.6576 382.147 55.2795 383.524 52.9557Z" fill="#FF6E6E"/>
<path d="M47.4605 290.888C41.0426 287.521 34.4466 282.19 30.4519 278.039C29.327 276.87 27.3436 277.54 27.6881 279.125C29.337 286.713 35.6649 295.608 39.475 300.963L39.5013 301C40.1503 301.912 41.4819 301.98 42.1987 301.12C43.9725 298.992 46.3906 295.949 48.1421 293.33C48.7065 292.486 48.3595 291.36 47.4605 290.888Z" fill="#FFD600"/>
<path d="M110.467 295.398C106.165 291.991 102.309 285.915 99.944 281.41C99.003 279.617 99.9574 277.472 101.888 276.862C103.302 276.416 104.943 275.908 106.652 275.399C108.831 274.749 111.304 276.4 112.353 278.417C113.934 281.458 116.641 284.954 119.074 287.76C120.58 289.497 120.153 292.229 118.124 293.308C116.915 293.951 115.471 294.719 113.808 295.603C112.733 296.174 111.421 296.153 110.467 295.398Z" fill="#1CB0F6"/>
<path d="M410.747 224.657C415.933 221.001 420.576 213.189 422.908 208.398C423.351 207.488 422.872 206.416 421.909 206.106C419.709 205.396 416.446 204.375 413.18 203.433C412.087 203.118 410.939 203.949 410.562 205.022C409.152 209.034 404.665 214.582 401.396 218.147C400.62 218.994 400.83 220.357 401.844 220.897C403.475 221.765 405.914 223.063 409.06 224.734C409.597 225.02 410.249 225.007 410.747 224.657Z" fill="#1CB0F6"/>
<path d="M39.5274 62.3979C35.2257 58.9912 31.3699 52.9156 29.0046 48.4102C28.0636 46.6178 29.0179 44.472 30.9484 43.8625C32.3623 43.4162 34.0033 42.9088 35.7121 42.3992C37.8914 41.7493 40.3643 43.4 41.4135 45.4177C42.9945 48.4582 45.7015 51.9547 48.135 54.7607C49.6407 56.4969 49.2137 59.2291 47.1847 60.3084C45.9757 60.9516 44.5314 61.7196 42.8685 62.6033C41.7936 63.1746 40.4817 63.1536 39.5274 62.3979Z" fill="#1CB0F6"/>
<path d="M277.433 112.342C271.236 109.648 265.67 102.442 263.662 99.1756C265.814 98.6653 271.365 97.3996 276.357 96.4198C276.357 99.6043 283.816 105.81 287.546 108.515C286.47 108.923 282.941 110.26 277.433 112.342Z" fill="#FFD600"/>
<path d="M343.885 132.387C347.698 130.342 351.187 126.758 353.635 123.701C355.1 121.871 354.049 119.28 351.76 118.772C350.537 118.5 349.19 118.207 347.804 117.914C345.683 117.465 343.214 119.066 341.854 120.754C340.689 122.201 339.104 123.751 337.485 125.18C335.433 126.992 335.917 130.46 338.478 131.429L341.319 132.503C342.158 132.82 343.095 132.811 343.885 132.387Z" fill="#BD8AFF"/>
<path d="M400.054 180.852C395.519 178.42 391.371 174.157 388.46 170.522C386.717 168.345 387.967 165.265 390.689 164.66C392.144 164.338 393.746 163.989 395.394 163.64C397.916 163.107 400.852 165.011 402.469 167.018C403.854 168.738 405.74 170.582 407.665 172.281C410.106 174.436 409.53 178.559 406.484 179.712L403.106 180.989C402.108 181.366 400.994 181.355 400.054 180.852Z" fill="#FFD600"/>
<path d="M96.4754 381.731C102.672 379.036 108.238 371.831 110.246 368.564C108.094 368.054 102.543 366.788 97.5512 365.809C97.5512 368.993 90.0921 375.199 86.3625 377.903C87.4384 378.312 90.9671 379.649 96.4754 381.731Z" fill="#BD8AFF"/>
<path d="M404.405 382.508C410.602 379.813 416.168 372.607 418.176 369.341C416.024 368.831 410.473 367.565 405.481 366.585C405.481 369.77 398.022 375.975 394.292 378.68C395.368 379.088 398.897 380.425 404.405 382.508Z" fill="#1CB0F6"/>
<path d="M11.2268 214.158C15.4523 211.892 19.3179 207.92 22.0303 204.533C23.6546 202.505 22.4898 199.634 19.953 199.071C18.5974 198.77 17.105 198.445 15.569 198.12C13.2192 197.623 10.4832 199.397 8.97661 201.268C7.68558 202.871 5.92854 204.589 4.13512 206.172C1.86044 208.18 2.39734 212.022 5.23524 213.096L8.38329 214.287C9.31257 214.638 10.3512 214.628 11.2268 214.158Z" fill="#FF6E6E"/>
<path fill-rule="evenodd" clip-rule="evenodd" d="M374.311 316.635C366.236 314.278 357.553 310.666 349.878 305.284C348.239 304.134 345.977 304.531 344.827 306.171C343.678 307.81 344.075 310.072 345.714 311.222C353.811 316.899 362.848 320.755 371.316 323.311C372.404 321.076 373.401 318.845 374.311 316.635Z" fill="#4CB200"/>
<path d="M437.542 316.765C431.206 313.166 424.905 307.977 421.041 303.919C419.922 302.745 417.93 303.411 418.256 305C419.754 312.299 425.462 320.8 429.532 326.564C430.823 328.393 433.496 328.519 434.904 326.778C436.172 325.21 437.575 323.404 438.811 321.671C439.99 320.018 439.307 317.769 437.542 316.765Z" fill="#FF6E6E"/>
<path fill-rule="evenodd" clip-rule="evenodd" d="M330.335 393.434C321.891 390.977 313.054 395.831 310.597 404.275C310.359 405.092 309.659 407.124 308.554 409.483C307.425 411.896 306.207 413.93 305.133 415.232C299.539 422.017 300.504 432.053 307.289 437.647C314.074 443.241 324.11 442.276 329.705 435.491C336.154 427.67 339.944 417.403 341.175 413.172C343.632 404.728 338.779 395.891 330.335 393.434Z" fill="#F49000"/>
<path fill-rule="evenodd" clip-rule="evenodd" d="M252.821 381.468C259.91 376.264 261.437 366.298 256.233 359.209C255.729 358.523 254.543 356.73 253.344 354.419C252.117 352.054 251.244 349.849 250.864 348.205C248.885 339.637 240.335 334.295 231.767 336.273C223.198 338.252 217.856 346.802 219.835 355.371C222.116 365.248 227.954 374.504 230.562 378.056C235.767 385.145 245.732 386.673 252.821 381.468Z" fill="#F49000"/>
</svg>
