<?xml version="1.0" encoding="UTF-8" standalone="no"?><!DOCTYPE svg PUBLIC "-//W3C//DTD SVG 1.1//EN" "http://www.w3.org/Graphics/SVG/1.1/DTD/svg11.dtd"><svg width="100%" height="100%" viewBox="0 0 67 84" version="1.1" xmlns="http://www.w3.org/2000/svg" xmlns:xlink="http://www.w3.org/1999/xlink" xml:space="preserve" xmlns:serif="http://www.serif.com/" style="fill-rule:evenodd;clip-rule:evenodd;stroke-linejoin:round;stroke-miterlimit:2;"><path d="M28.22,2.219c2.347,-2.959 6.839,-2.959 9.186,-0l21.188,26.712c4.404,5.378 7.032,12.168 7.032,19.549c0,17.451 -14.691,31.597 -32.812,31.597c-18.122,0 -32.812,-14.147 -32.812,-31.597c0,-1.224 0.072,-2.432 0.213,-3.62l-0.074,-26.617c-0.011,-3.916 2.121,-6.805 5.766,-6.191c0.726,0.122 2.262,0.585 2.95,0.953l7.587,4.061l11.777,-14.848Zm6.809,32.12c-1.154,-1.571 -3.5,-1.571 -4.654,0l-8.282,11.278c-0.077,0.105 -0.138,0.216 -0.183,0.328c-1.975,2.332 -3.159,5.309 -3.159,8.553c0,7.479 6.296,13.542 14.062,13.542c7.767,0 14.062,-6.063 14.062,-13.542c0,-3.662 -1.509,-6.984 -3.961,-9.421l-7.886,-10.738Z" style="fill:#fff;fill-opacity:0.76;fill-rule:nonzero;"/></svg>